<?xml version="1.0" encoding="UTF-8" standalone="no"?>
<svg
   xmlns:dc="http://purl.org/dc/elements/1.1/"
   xmlns:cc="http://creativecommons.org/ns#"
   xmlns:rdf="http://www.w3.org/1999/02/22-rdf-syntax-ns#"
   xmlns:svg="http://www.w3.org/2000/svg"
   xmlns="http://www.w3.org/2000/svg"
   id="svg8"
   version="1.1"
   viewBox="0 0 124.99416 72.102966"
   height="72.102966mm"
   width="124.99416mm">
  <defs
     id="defs2" />
  <metadata
     id="metadata5">
    <rdf:RDF>
      <cc:Work
         rdf:about="">
        <dc:format>image/svg+xml</dc:format>
        <dc:type
           rdf:resource="http://purl.org/dc/dcmitype/StillImage" />
        <dc:title></dc:title>
      </cc:Work>
    </rdf:RDF>
  </metadata>
  <g
     transform="translate(-18.181596,-68.59068)"
     id="layer1">
    <text
       transform="scale(0.78618102,1.2719717)"
       id="text79"
       y="111.24106"
       x="21.796513"
       style="font-style:normal;font-weight:normal;font-size:94.71704102px;line-height:1.25;font-family:sans-serif;letter-spacing:0px;word-spacing:0px;fill:#ff00ff;fill-opacity:1;stroke:none;stroke-width:2.36792588"
       xml:space="preserve"><tspan
         style="font-style:normal;font-variant:normal;font-weight:normal;font-stretch:normal;font-family:Klute;-inkscape-font-specification:Klute;fill:#ff00ff;stroke-width:2.36792588"
         y="195.04344"
         x="21.796513"
         id="tspan77" /></text>
    <path
       id="path75"
       d="m 71.95372,139.17358 c -0.71393,-0.27879 -1.39651,-0.44604 -1.51685,-0.37167 -0.12034,0.0744 -0.66245,0.052 -1.20469,-0.0497 -0.90556,-0.16988 -0.93628,-0.20331 -0.37694,-0.41022 0.33492,-0.1239 0.70323,-0.167 0.81846,-0.0958 0.17713,0.10947 3.20268,-0.33571 3.36983,-0.49584 0.031,-0.0297 -0.66465,-0.82237 -1.54584,-1.76152 -1.60402,-1.70952 -2.47052,-2.90472 -1.80986,-2.49641 0.21202,0.13104 0.2788,0.073 0.19176,-0.16651 -0.0735,-0.20215 -0.26749,-0.33779 -0.4312,-0.30141 -0.16371,0.0364 -0.29765,-0.1309 -0.29765,-0.37174 0,-0.39125 0.0573,-0.38599 0.53849,0.0495 0.29618,0.26803 0.47908,0.64218 0.40645,0.83145 -0.0726,0.18927 0.13153,0.63274 0.45369,0.9855 0.32216,0.35276 0.76433,0.90047 0.98262,1.21714 0.21828,0.31667 0.84328,0.93245 1.38888,1.36839 0.85048,0.67954 1.01577,0.73074 1.15847,0.35886 0.0944,-0.24601 -0.14174,-1.00004 -0.5455,-1.74189 -0.39158,-0.71946 -0.64194,-1.30811 -0.55636,-1.30811 0.32779,0 -0.683,-1.5856 -1.18052,-1.85187 -0.28782,-0.15404 -0.59715,-0.57429 -0.68741,-0.93389 -0.19882,-0.79215 -0.40325,-0.82253 -0.83908,-0.12465 -0.18176,0.29104 -0.47097,0.52916 -0.6427,0.52916 -0.17173,0 -0.039,-0.25455 0.29495,-0.56567 0.33395,-0.31112 0.77965,-0.9362 0.99044,-1.38906 0.25836,-0.55503 0.34295,-0.62728 0.25956,-0.22168 -0.15437,0.75084 0.29345,2.441 0.64676,2.441 0.25039,0 0.63216,0.34445 3.5923,3.24114 0.70636,0.69123 1.45482,1.25677 1.66324,1.25677 0.26772,0 0.22821,-0.114 -0.13465,-0.38846 -0.28248,-0.21365 -0.37179,-0.39224 -0.19848,-0.39687 0.33753,-0.009 0.69677,0.44494 0.77852,0.98377 0.10742,0.70808 -1.04385,0.0531 -2.50032,-1.42256 -0.62816,-0.63642 -1.25324,-1.15713 -1.38906,-1.15713 -0.39906,0 -0.28209,0.60315 0.28221,1.45521 0.72333,1.09219 0.66408,1.77995 -0.19844,2.3033 l -0.72759,0.44148 1.19061,0.54003 1.19062,0.54003 -1.05833,-0.007 c -0.58208,-0.004 -1.64246,-0.23467 -2.35639,-0.51346 z m 17.30535,-0.0106 c -0.65484,-0.26804 -1.74914,-0.49382 -2.43178,-0.50173 -1.25621,-0.0146 -2.08397,-0.51443 -0.95727,-0.57807 3.32455,-0.18779 6.31509,-0.15426 6.45516,0.0724 0.0936,0.1514 -0.0491,0.24696 -0.32521,0.21778 -0.81359,-0.086 -1.1534,-0.005 -1.1534,0.27352 0,0.14552 0.14883,0.26837 0.33073,0.27299 0.1819,0.005 0.56185,0.18323 0.84432,0.39688 0.47853,0.36194 0.4424,0.38659 -0.52917,0.36103 -0.57351,-0.0151 -1.57854,-0.24674 -2.23338,-0.51478 z m 17.67358,0.32742 c -0.42735,-0.0493 -0.78044,-0.28879 -0.87773,-0.59531 -0.16306,-0.51375 -0.48952,-0.59138 -2.24377,-0.53357 -0.50932,0.0168 -1.10463,-0.0889 -1.32291,-0.23489 -0.30455,-0.20367 -0.18144,-0.27046 0.52916,-0.28709 0.50933,-0.0119 2.32055,-0.0817 4.02495,-0.15506 1.9159,-0.0825 3.27947,-0.0283 3.57188,0.14187 0.39062,0.22732 0.30514,0.27665 -0.49091,0.28329 -0.92205,0.008 -1.4869,0.52579 -1.15635,1.06063 0.15497,0.25074 -1.02563,0.43652 -2.03432,0.32013 z m 17.51601,-0.5878 c -0.64652,-0.36012 -1.40523,-0.51021 -2.51355,-0.49723 -0.87312,0.0102 -1.82562,-0.003 -2.11666,-0.0286 -0.4507,-0.0402 -0.43109,-0.0786 0.13229,-0.25905 0.70719,-0.22648 7.23701,-0.31382 6.68073,-0.0893 -0.56496,0.22796 -0.36451,0.7676 0.39687,1.06846 0.69243,0.27361 0.67004,0.28834 -0.46302,0.30457 -0.71556,0.0102 -1.56012,-0.18876 -2.11666,-0.49877 z m -94.98543,-0.0168 c -0.80036,-0.12334 -1.95051,-0.1561 -2.55587,-0.0728 -0.60537,0.0833 -1.31975,0.0241 -1.5875,-0.13158 -0.37464,-0.21778 0.0162,-0.28486 1.69598,-0.29105 1.73403,-0.006 2.18281,-0.0875 2.18281,-0.39449 0,-0.21254 -0.18418,-0.53997 -0.4093,-0.7276 -0.959,-0.79935 -1.70737,-1.68362 -1.70737,-2.01742 0,-0.6817 0.85994,-1.81092 1.73999,-2.28486 0.48574,-0.26158 1.20835,-0.94486 1.60581,-1.5184 0.39746,-0.57353 0.96811,-1.24214 1.26812,-1.48579 0.3,-0.24366 1.06311,-1.06875 1.69579,-1.83353 0.63268,-0.76478 1.43635,-1.46229 1.78593,-1.55004 0.34959,-0.0877 0.63561,-0.19432 0.63561,-0.23686 0,-0.46307 -2.20547,-4.6278 -2.4507,-4.6278 -0.18078,0 -0.83232,-0.79383 -1.44786,-1.76408 l -1.11917,-1.76408 0.0404,-2.94007 0.0404,-2.94007 -1.27812,-1.64585 c -0.70296,-0.90521 -1.43454,-1.64585 -1.62574,-1.64585 -0.19119,0 -0.54059,0.38696 -0.77644,0.8599 -0.43364,0.86955 -1.84738,2.3151 -2.26416,2.3151 -0.45669,0 -1.80418,-1.6692 -2.1044,-2.60683 -0.68266,-2.13202 -1.54967,-3.66774 -2.46468,-4.36566 -0.80719,-0.61567 -0.95361,-0.88549 -0.95361,-1.75722 0,-0.71427 0.15508,-1.13849 0.50609,-1.38434 0.49576,-0.34725 0.49306,-0.39946 -0.1323,-2.55852 -0.78788,-2.7202 -0.7966,-3.32618 -0.0553,-3.84538 1.08453,-0.75963 2.12199,0.44149 3.13722,3.63212 0.55452,1.74273 0.55731,1.81508 0.0901,2.33139 -0.26522,0.29306 -0.68175,0.48066 -0.92562,0.41689 -0.3255,-0.0851 -0.4338,0.0445 -0.40728,0.48749 0.0199,0.3319 0.11945,0.55201 0.22129,0.48914 0.24042,-0.14843 0.74088,0.78975 0.74088,1.38889 0,0.42126 -0.0364,0.41669 -0.38846,-0.0487 -0.24207,-0.32004 -0.39164,-0.38233 -0.39688,-0.16529 -0.005,0.22251 -0.2712,0.31807 -0.73602,0.26458 -0.50092,-0.0576 -0.7163,-0.22708 -0.69133,-0.54389 0.02,-0.25309 -0.0693,-0.39489 -0.19844,-0.31511 -0.48205,0.29792 -0.20713,1.05707 0.56822,1.56904 0.78821,0.52045 1.619,1.99255 2.47859,4.3919 0.23978,0.6693 0.73063,1.49373 1.09077,1.83206 l 0.6548,0.61515 0.6631,-0.62295 c 0.3647,-0.34262 1.02057,-1.25635 1.45747,-2.0305 0.59248,-1.04982 0.94509,-1.40651 1.38742,-1.40349 0.4914,0.003 0.52503,0.0522 0.19617,0.28473 -0.29866,0.21122 -0.31503,0.31388 -0.0661,0.41487 0.1819,0.0738 0.33073,0.29267 0.33073,0.48636 0,0.19369 0.47121,0.86838 1.04713,1.49931 0.73146,0.80132 1.09879,1.48178 1.2185,2.2572 l 0.17138,1.11007 2.73769,-0.004 2.73768,-0.004 -0.11117,-2.48863 c -0.0831,-1.8595 -0.24913,-2.74104 -0.65687,-3.48707 -0.30014,-0.54913 -0.89919,-1.65327 -1.33122,-2.45364 -0.43203,-0.80036 -1.23082,-1.84216 -1.77507,-2.3151 -0.54426,-0.47294 -0.84906,-0.8599 -0.67734,-0.8599 0.17172,0 0.38581,0.11907 0.47575,0.26459 0.23219,0.3757 0.66145,0.32804 0.66145,-0.0734 0,-0.46686 1.45278,-3.22482 2.24765,-4.26694 0.66664,-0.874 2.25027,-4.4456 2.25027,-5.07507 0,-0.19077 0.29385,-0.66392 0.65299,-1.05145 0.66303,-0.71542 1.08642,-1.64021 0.85628,-1.87034 -0.0696,-0.0696 -0.37812,-0.1455 -0.68561,-0.16866 -0.30749,-0.0232 -0.56848,-0.22513 -0.57996,-0.44883 -0.0182,-0.35525 -0.04,-0.3565 -0.17197,-0.01 -0.0831,0.21828 -0.27536,0.4777 -0.42728,0.57648 -0.15191,0.0988 -0.28811,0.6545 -0.30267,1.23492 -0.0204,0.81236 -0.36361,1.5629 -1.49079,3.25998 -0.80537,1.21256 -1.74708,2.68091 -2.09268,3.263 -0.34561,0.58208 -1.21164,1.61159 -1.92453,2.2878 -1.18127,1.12051 -1.28126,1.30811 -1.12821,2.11667 l 0.16795,0.88719 -0.42077,-0.74059 c -0.32408,-0.57043 -0.55403,-0.70431 -1.00082,-0.58268 -0.55768,0.15182 -0.55964,0.14595 -0.0509,-0.1522 1.08238,-0.63431 1.60457,-1.83182 0.79879,-1.83182 -0.21551,0 -0.46654,-0.29766 -0.55785,-0.66146 -0.18728,-0.74621 -0.91953,-0.88155 -1.43156,-0.26458 -0.54115,0.65204 -0.88865,0.44883 -0.42986,-0.25137 0.40098,-0.61198 0.39241,-0.67089 -0.15303,-1.05294 -0.54123,-0.37909 -0.60791,-0.35901 -1.05404,0.31752 -0.3217,0.48783 -0.47682,0.58246 -0.478,0.29158 -9.6e-4,-0.23684 0.17685,-0.57884 0.39514,-0.76 0.65591,-0.54436 0.44686,-0.83871 -0.26459,-0.37254 -0.3638,0.23837 -0.66146,0.59155 -0.66146,0.78484 0,0.19329 -0.22972,0.51235 -0.51049,0.70901 -0.75047,0.52565 -0.91478,1.56113 -0.43133,2.71819 0.23078,0.55234 0.49638,0.92747 0.59022,0.83363 0.0938,-0.0938 0.31887,-0.0476 0.50005,0.10278 0.18119,0.15037 0.68267,0.37471 1.11441,0.49853 l 0.78498,0.22513 -0.37922,-0.76015 c -0.20856,-0.41808 -0.49073,-0.82907 -0.62704,-0.91332 -0.39182,-0.24215 -0.28829,-0.91568 0.14074,-0.91568 0.2367,0 0.32905,-0.15513 0.23628,-0.39688 -0.0838,-0.21828 -0.31815,-0.39687 -0.52086,-0.39687 -0.20271,0 -0.36857,-0.13359 -0.36857,-0.29686 0,-0.18818 0.21793,-0.14959 0.59531,0.10542 0.40856,0.27607 0.5716,0.61705 0.51973,1.08692 -0.0416,0.37656 0.23674,1.36745 0.61846,2.20198 0.40918,0.89457 0.58115,1.55495 0.41899,1.609 -0.81549,0.27183 -2.01505,1.34297 -1.97734,1.76566 0.0236,0.2642 -0.24432,0.79008 -0.59531,1.16861 -0.74908,0.80784 -0.77621,0.99028 -0.2287,1.53779 0.22521,0.22521 0.33031,0.48459 0.23355,0.57641 -0.0967,0.0918 -0.31078,-0.0636 -0.47562,-0.34544 -0.16483,-0.28182 -0.67361,-0.87713 -1.13063,-1.32292 -0.94736,-0.9241 -1.42268,-1.75029 -1.40767,-2.44678 0.006,-0.28212 0.17578,-0.099 0.41112,0.44373 0.22042,0.50829 0.65386,1.19357 0.9632,1.52284 l 0.56244,0.59869 0.61394,-0.57677 c 0.33767,-0.31723 0.61395,-0.78356 0.61395,-1.0363 0,-0.44216 1.22469,-1.66445 1.88991,-1.88619 0.5468,-0.18226 0.0277,-0.97613 -0.7541,-1.15335 -2.22376,-0.50406 -3.14746,-1.55933 -2.91061,-3.32519 0.23981,-1.78794 2.26406,-3.86555 2.96542,-3.04359 0.39881,0.46738 1.78267,1.34221 2.38125,1.50535 0.29104,0.0793 0.52917,0.29728 0.52917,0.48435 0,0.18707 0.20836,0.49248 0.46302,0.6787 0.25466,0.18621 0.46302,0.47934 0.46302,0.6514 0,0.7818 2.03264,-1.42125 3.63805,-3.94305 0.97273,-1.52797 1.92132,-2.93545 2.10798,-3.12775 0.21299,-0.21941 0.33939,-1.06651 0.33939,-2.27445 0,-3.34963 1.40982,-4.90479 1.98568,-2.19039 0.21152,0.99702 0.33662,1.1957 0.59205,0.94028 0.92798,-0.92798 0.41272,1.53616 -0.5639,2.69681 -0.38,0.45161 -0.69092,0.94096 -0.69092,1.08746 0,0.5979 -1.66976,4.38115 -2.29605,5.20226 -0.85181,1.11678 -2.1941,3.74874 -2.19851,4.31083 -0.002,0.23504 0.21637,0.71129 0.48491,1.05833 0.26855,0.34705 0.82135,1.28584 1.22844,2.08621 0.40709,0.80036 0.91258,1.78687 1.12331,2.19223 0.26547,0.51067 0.41246,1.89207 0.4786,4.49792 l 0.0955,3.76089 1.99708,4.23333 c 1.09839,2.32834 1.9971,4.4776 1.99713,4.77615 3e-5,0.30211 -0.67488,1.24072 -1.52197,2.11667 -1.89209,1.95652 -2.9759,3.30335 -2.9759,3.6981 0,0.16635 -0.42231,0.84451 -0.93847,1.50703 -0.98252,1.2611 -1.05523,2.18451 -0.22619,2.87256 0.204,0.1693 0.37032,0.50161 0.3696,0.73845 -9e-4,0.29871 -0.19407,0.18971 -0.63057,-0.35584 -0.34609,-0.43255 -0.57088,-0.93857 -0.49954,-1.12448 0.19514,-0.50854 -0.39156,-0.40631 -0.68582,0.1195 -0.24052,0.42979 -0.28942,0.42731 -0.8069,-0.041 -0.30297,-0.27418 -0.55086,-0.65866 -0.55086,-0.85439 0,-0.44111 -0.32143,-0.45776 -0.74083,-0.0384 -0.47409,0.47409 -0.39069,0.87783 0.36748,1.77886 0.43438,0.51624 0.55538,0.81442 0.33073,0.81504 -0.19484,5.3e-4 0.003,0.21938 0.4395,0.48629 0.43656,0.26692 0.95716,0.68319 1.15688,0.92505 0.22132,0.26804 0.78957,0.45164 1.4552,0.47018 l 1.09209,0.0304 -1.05834,0.21891 c -1.32327,0.27371 -4.30347,0.25412 -6.21771,-0.0409 z m 3.76614,-1.04041 c -0.47524,-0.4323 -1.01102,-0.77659 -1.19062,-0.7651 -0.25456,0.0163 -0.25364,0.0503 0.004,0.15433 0.1819,0.0734 0.33073,0.26105 0.33073,0.417 0,0.41946 -1.01089,-0.57078 -1.39103,-1.36261 -0.52046,-1.08414 -0.2595,-1.94119 1.00425,-3.29817 1.15924,-1.24477 1.16921,-1.27119 0.71506,-1.89588 -0.80679,-1.10974 -1.90987,-0.65756 -1.31847,0.54048 0.21445,0.43443 0.19852,0.4699 -0.089,0.19812 -0.28348,-0.26797 -0.51649,-0.16987 -1.22302,0.51493 -1.02026,0.98888 -1.10136,1.6104 -0.28477,2.18236 0.32342,0.22653 0.45099,0.41188 0.28348,0.41188 -0.35033,0 -1.03907,-0.63495 -1.19449,-1.10121 -0.13544,-0.40631 -0.96214,-0.0989 -1.16655,0.43375 -0.085,0.22158 -0.0634,0.61124 0.048,0.8659 0.11143,0.25466 0.17952,0.56485 0.15132,0.68931 -0.0699,0.30834 0.49773,0.96433 0.83443,0.96433 0.15026,0 0.0577,-0.23812 -0.2057,-0.52916 -0.26339,-0.29104 -0.36365,-0.52917 -0.2228,-0.52917 0.3592,0 1.56514,1.3482 1.775,1.98438 0.14374,0.43575 0.0774,0.4124 -0.37585,-0.1323 -0.48311,-0.58058 -0.51549,-0.59005 -0.26482,-0.0775 0.43352,0.88648 1.04256,1.11969 2.92493,1.12001 l 1.71979,2.6e-4 -0.86407,-0.78599 z m -1.02866,0.23688 c 0.35012,-0.20351 0.57125,-0.20123 0.78052,0.008 0.21295,0.21295 0.0807,0.28982 -0.48852,0.28395 -0.68424,-0.007 -0.72026,-0.0431 -0.292,-0.29199 z m -0.25367,-1.95717 c -0.24135,-0.36834 -0.49047,-0.61806 -0.5536,-0.55493 -0.15695,0.15695 0.52777,1.22464 0.78537,1.22464 0.11387,0 0.01,-0.30137 -0.23177,-0.66971 z m 2.73858,-2.39356 c 0.3257,-0.57077 0.53481,-1.19438 0.46469,-1.3858 -0.0876,-0.23908 0.0278,-0.29873 0.36867,-0.19055 0.85881,0.27257 0.9258,-0.63405 0.0998,-1.35037 l -0.73157,-0.6344 -0.467,0.56831 c -0.37949,0.46181 -0.40592,0.64867 -0.14102,0.9971 0.1793,0.23583 0.22738,0.34609 0.10685,0.24502 -0.3419,-0.28672 -1.4832,1.24136 -1.4832,1.98585 0,0.64544 0.37949,1.00086 0.92604,0.86728 0.14552,-0.0356 0.53106,-0.53166 0.85676,-1.10243 z m -1.51822,-1.279 c 0,-0.14467 -0.47625,0.20202 -1.05833,0.77041 -0.58209,0.56839 -1.05834,1.12463 -1.05834,1.2361 0,0.11146 0.47625,-0.23522 1.05834,-0.77042 0.58208,-0.53519 1.05833,-1.09143 1.05833,-1.23609 z m 0.79375,-1.61084 c 0.13832,-0.3638 0.35159,-0.66146 0.47393,-0.66146 0.12235,0 0.48622,-0.63641 0.80862,-1.41425 0.3224,-0.77783 0.79079,-1.64258 1.04087,-1.92166 1.24721,-1.39179 1.24942,-1.30776 -0.0702,-2.6704 -0.67631,-0.69835 -1.36009,-1.50786 -1.51951,-1.7989 -0.15942,-0.29104 0.50126,0.28826 1.46819,1.28733 l 1.75804,1.8165 -1.00734,1.14441 c -0.55405,0.62942 -1.15957,1.65245 -1.34561,2.27339 -0.31601,1.05477 -0.30014,1.15984 0.24138,1.59834 0.57269,0.46374 0.59595,0.44971 1.94532,-1.17342 0.75114,-0.90353 1.75832,-1.99022 2.23818,-2.41488 0.75068,-0.66433 0.84772,-0.88678 0.69513,-1.59356 -0.19703,-0.91266 -2.37807,-5.71623 -2.59543,-5.71623 -0.0758,0 -0.41139,0.10763 -0.74566,0.23918 -0.33427,0.13155 -1.16296,0.4351 -1.84153,0.67456 -1.14972,0.40571 -1.22905,0.49306 -1.1644,1.28217 0.0382,0.46574 0.4525,1.60334 0.92077,2.52801 0.83405,1.64697 0.90607,2.41105 0.22893,2.42863 -0.45782,0.0119 -1.22347,0.69482 -2.25751,2.01365 -0.99777,1.27256 -0.99028,1.23638 -0.43234,2.0879 0.54158,0.82656 0.84331,0.82414 1.16019,-0.009 z M 21.52573,103.98649 c 0,-0.14552 -0.17859,-0.26458 -0.39687,-0.26458 -0.21828,0 -0.39688,0.11906 -0.39688,0.26458 0,0.14552 0.1786,0.26458 0.39688,0.26458 0.21828,0 0.39687,-0.11906 0.39687,-0.26458 z m -0.79375,-1.19062 c 0,-0.21829 -0.12609,-0.39688 -0.28019,-0.39688 -0.15411,0 -0.2129,0.10889 -0.13065,0.24199 0.0823,0.13309 -10e-6,0.30228 -0.18282,0.37598 -0.20052,0.0808 -0.14869,0.14229 0.13064,0.15489 0.25466,0.0115 0.46302,-0.1577 0.46302,-0.37598 z m 1.85209,-2.24361 c 0,-1.54049 -1.49695,-4.50327 -2.27528,-4.50327 -0.96698,0 -0.76659,1.81513 0.43084,3.9026 0.93783,1.63491 1.84444,1.93016 1.84444,0.60067 z M 38.10513,88.30993 c -0.0734,-0.1819 -0.13345,-0.0331 -0.13345,0.33073 0,0.3638 0.0601,0.51263 0.13345,0.33073 0.0734,-0.18191 0.0734,-0.47956 0,-0.66146 z m 13.05392,50.2868 c 10e-6,-0.10035 0.4465,-0.22917 0.99221,-0.28625 0.79103,-0.0827 -2.54152,-0.31191 -3.83646,-0.26382 -0.1819,0.007 -0.33073,-0.0935 -0.33073,-0.2229 0,-0.12935 0.71437,-0.23519 1.5875,-0.23519 0.9052,0 1.5875,-0.11627 1.5875,-0.27052 0,-0.14879 -0.59531,-0.83834 -1.32292,-1.53233 -0.7276,-0.69398 -1.32292,-1.35137 -1.32292,-1.46085 0,-0.10948 0.59429,-0.91317 1.32064,-1.78596 0.72635,-0.8728 1.39649,-1.90938 1.4892,-2.30352 0.0927,-0.39413 0.40906,-1.11644 0.70301,-1.60513 0.29395,-0.48869 0.62365,-1.26259 0.73268,-1.71979 0.1565,-0.65629 0.20393,-0.7023 0.22531,-0.21856 0.0149,0.33698 -0.10147,0.8529 -0.25859,1.14648 -0.22396,0.41848 -0.18652,0.64334 0.1733,1.04094 0.46978,0.5191 0.17631,0.72985 -0.32217,0.23136 -0.46696,-0.46695 -0.98758,0.38981 -0.63603,1.04668 0.22358,0.41777 0.21276,0.51153 -0.0478,0.41391 -0.19377,-0.0726 -0.57934,0.32137 -0.90769,0.92744 l -0.57083,1.05365 0.53364,0.67842 c 0.2935,0.37312 0.65334,0.63851 0.79965,0.58974 0.1463,-0.0488 0.47557,-0.64074 0.7317,-1.31549 0.34725,-0.9148 0.38999,-1.30906 0.16806,-1.55017 -0.22775,-0.24742 -0.18986,-0.28545 0.16135,-0.16197 0.49829,0.1752 1.14502,-0.68702 0.86055,-1.1473 -0.0881,-0.14251 -0.0543,-0.25911 0.075,-0.25911 0.12932,0 0.43366,-0.92386 0.67631,-2.05302 0.24264,-1.12915 0.65953,-2.46861 0.92641,-2.97656 0.46566,-0.88628 0.46667,-0.99294 0.025,-2.64334 l -0.46021,-1.71979 0.1428,1.62573 c 0.12647,1.43993 0.0819,1.6583 -0.3898,1.91076 -0.29293,0.15677 -0.78473,0.79442 -1.0929,1.41698 -0.37458,0.75675 -0.56037,0.95176 -0.56051,0.58834 -1.2e-4,-0.29898 0.39339,-0.97331 0.87445,-1.49851 l 0.87465,-0.9549 -0.0642,-2.86155 c -0.0388,-1.72994 -0.17544,-2.89862 -0.34549,-2.95531 -0.15471,-0.0516 -0.28128,-0.48598 -0.28128,-0.96536 0,-0.47937 -0.17545,-1.0172 -0.38988,-1.19516 -0.73048,-0.60624 -0.77757,-2.04492 -0.12926,-3.9492 l 0.60656,-1.78163 2.48043,0.38246 c 1.36424,0.21036 2.56496,0.29794 2.66827,0.19463 0.74609,-0.74609 -0.47875,-7.02207 -1.63204,-8.36245 -0.68284,-0.7936 -2.3231,-1.83545 -2.88969,-1.83545 -0.22758,0 -0.65414,-0.33755 -0.94791,-0.75011 -0.50279,-0.70611 -0.50772,-0.77652 -0.0842,-1.2002 0.38628,-0.38638 0.39558,-0.4837 0.0657,-0.68764 -0.21134,-0.13065 -0.47923,-0.17885 -0.59532,-0.10711 -0.17819,0.11013 -0.26699,-0.42187 -0.19149,-1.14722 0.0429,-0.41261 -0.98101,-0.50553 -1.54093,-0.13984 -0.34885,0.22784 -0.59531,0.27314 -0.59531,0.10941 0,-0.15367 0.12718,-0.358 0.28262,-0.45406 0.15544,-0.0961 0.21489,-0.35118 0.13211,-0.5669 -0.0828,-0.21572 -0.0611,-0.34475 0.0481,-0.28675 0.10923,0.058 0.58557,0.2582 1.05851,0.44487 0.47294,0.18667 0.8599,0.52844 0.8599,0.75948 0,0.23105 0.24832,0.68442 0.55183,1.00749 0.42483,0.45221 0.49089,0.70128 0.28702,1.08222 -0.39856,0.74472 0.0474,1.28961 1.65942,2.02762 1.9128,0.87571 2.83729,2.1849 3.52658,4.99409 0.48382,1.97176 0.52658,2.82341 0.42785,8.52213 -0.0603,3.48229 -0.16764,6.3894 -0.23848,6.46024 -0.0709,0.0708 -0.12881,-0.47533 -0.12881,-1.21372 v -1.34253 l -1.52135,-0.0977 c -2.44218,-0.15678 -2.71198,-0.0486 -2.71198,1.0875 0,0.53741 0.245,1.94597 0.54445,3.13014 0.49881,1.97251 0.50983,2.20586 0.13143,2.78336 -0.80124,1.22285 -1.60241,4.90936 -1.16252,5.34925 0.0706,0.0706 0.48115,0.19891 0.91234,0.28515 0.76029,0.15206 0.80208,0.10614 1.38208,-1.5186 0.32894,-0.92147 0.78715,-1.91352 1.01824,-2.20456 0.4599,-0.5792 0.4297,-0.47846 -0.55513,1.85208 -0.36896,0.87313 -0.67548,1.94469 -0.68116,2.38125 -0.007,0.56332 -0.0781,0.68669 -0.24385,0.42497 -0.36718,-0.57987 -2.20794,-1.13733 -2.45773,-0.74431 -0.3352,0.5274 -0.23708,1.24538 0.17019,1.24538 0.20969,0 0.46735,0.1393 0.57257,0.30955 0.12782,0.20681 0.0482,0.25464 -0.23979,0.14412 -0.32728,-0.12559 -0.49514,0.0665 -0.69695,0.79736 -0.31145,1.12797 -0.0138,1.65939 0.92936,1.65939 0.49549,0 0.65123,-0.18206 0.79043,-0.92405 0.0953,-0.50823 0.10897,-1.09181 0.0303,-1.29684 -0.0855,-0.2228 0.0626,-0.42659 0.36817,-0.50649 0.32322,-0.0845 0.4463,-0.0286 0.33467,0.15198 -0.0971,0.15711 -0.26372,0.76237 -0.37026,1.34502 -0.18036,0.98629 -0.0888,1.37947 0.59489,2.5533 0.12713,0.21828 0.30235,0.61 0.38938,0.87049 0.087,0.26049 0.5003,0.6505 0.91836,0.86669 0.78509,0.40599 1.00994,1.09486 0.42939,1.31559 -0.53797,0.20453 -7.07764,0.27111 -7.07762,0.072 z m 3.65981,-1.10076 -0.57189,-0.83344 0.86869,0.8599 c 0.66234,0.65563 1.09693,0.85893 1.82949,0.85584 0.65926,-0.003 0.84494,-0.0774 0.59166,-0.23779 -0.29611,-0.18749 -0.26994,-0.25696 0.13229,-0.35117 0.43191,-0.10117 0.4037,-0.1578 -0.20354,-0.40852 -0.38773,-0.16009 -0.78876,-0.56578 -0.89119,-0.90154 -0.10242,-0.33576 -0.34225,-0.78906 -0.53295,-1.00734 -0.1907,-0.21828 -0.3579,-0.51594 -0.37156,-0.66146 -0.0137,-0.14552 -0.30659,-0.26458 -0.65096,-0.26458 -0.34437,0 -0.85258,-0.2043 -1.12935,-0.45399 -0.48189,-0.43474 -0.52399,-0.41541 -0.9933,0.45606 -0.48977,0.90944 -0.48967,0.91039 0.14314,1.43737 0.34827,0.29003 0.69718,0.53129 0.77535,0.53613 0.25958,0.0161 0.23432,1.16981 -0.0327,1.4915 -0.19537,0.23542 -0.023,0.31647 0.67302,0.31647 h 0.93566 z m 0.84343,-0.0333 c -0.20869,-0.25146 -0.22876,-0.40327 -0.0533,-0.40327 0.31977,0 0.69257,0.50196 0.50909,0.68545 -0.0666,0.0666 -0.27169,-0.0604 -0.45577,-0.28218 z m -1.85739,-1.47474 -0.66146,-0.53054 0.72761,0.31431 c 0.40018,0.17286 0.7276,0.41425 0.7276,0.53642 0,0.30182 -0.0367,0.28701 -0.79375,-0.32019 z m 0,1.52208 c 0,-0.18873 -0.35214,-0.63522 -0.78254,-0.99219 -0.54115,-0.44883 -0.78601,-0.89439 -0.79375,-1.44436 -0.009,-0.63152 -0.18179,-0.87081 -0.83953,-1.16195 -0.45558,-0.20166 -0.88772,-0.59381 -0.96032,-0.87144 -0.12846,-0.49122 -0.1453,-0.49051 -0.62689,0.0264 -0.6525,0.70037 -0.63881,0.76983 0.36501,1.85213 0.47294,0.50991 0.62177,0.75393 0.33073,0.54226 -0.29104,-0.21167 -0.73828,-0.61253 -0.99386,-0.8908 -0.25559,-0.27826 -0.53816,-0.43248 -0.62795,-0.34269 -0.22392,0.22392 2.94838,3.36351 3.38658,3.35166 0.19354,-0.005 -5.3e-4,-0.29762 -0.43151,-0.64975 -0.43088,-0.35213 -0.72435,-0.6993 -0.65216,-0.77148 0.0722,-0.0722 0.54378,0.27341 1.04799,0.768 0.95705,0.93879 1.5782,1.16871 1.5782,0.58419 z m -0.81209,-3.59134 c 0.42714,-0.79812 0.78603,-2.68011 0.51108,-2.68011 -0.13462,0 -0.30925,0.20836 -0.38807,0.46302 -0.0788,0.25467 -0.29513,0.82021 -0.48069,1.25678 -0.48286,1.13596 -0.17651,1.95845 0.35768,0.96031 z m -15.85666,4.46364 c 0,-0.58199 -0.0563,-0.67418 -0.61271,-1.00322 -0.56579,-0.33459 -0.56403,-0.33801 0.0835,-0.16278 0.36381,0.0985 0.74894,0.31177 0.85585,0.47406 0.28056,0.42589 0.24612,0.95653 -0.0621,0.95653 -0.14552,0 -0.26458,-0.11907 -0.26458,-0.26459 z m -2.77625,-0.52613 c -0.0927,-0.14998 0.0135,-0.19434 0.24897,-0.10399 0.45837,0.1759 0.54223,0.36554 0.16165,0.36554 -0.13694,0 -0.32171,-0.1177 -0.41062,-0.26155 z m 43.68574,-1.17997 c 0.0809,-0.21076 -0.10574,-0.65453 -0.4147,-0.98615 -0.30896,-0.33163 -0.72101,-1.14146 -0.91566,-1.79963 -0.2196,-0.74249 -0.49213,-1.17268 -0.71809,-1.13347 -0.2872,0.0498 -0.34559,-0.32762 -0.2763,-1.78594 0.0781,-1.64313 0.0339,-1.85112 -0.39688,-1.86703 -0.40915,-0.0151 -0.39191,-0.0627 0.11058,-0.30501 0.84287,-0.4065 0.7378,-0.90536 -0.23151,-1.09922 -1.30336,-0.26067 -1.55443,-0.20191 -1.55443,0.3638 0,0.32166 0.17639,0.52917 0.44979,0.52917 0.34984,0 0.37924,0.0706 0.1323,0.3175 -0.5616,0.56159 -0.37942,2.18426 0.33132,2.95116 0.35685,0.38505 0.54009,0.70009 0.40718,0.70009 -0.1329,0 -0.48506,-0.26128 -0.78257,-0.58062 -0.40578,-0.43555 -0.61651,-0.50506 -0.84339,-0.27817 -0.38559,0.38559 0.2675,1.44548 1.30125,2.11177 0.76226,0.49131 1.66848,1.46057 1.51253,1.61775 -0.0505,0.0509 -0.52051,-0.33602 -1.04438,-0.8599 -0.52388,-0.52387 -1.04747,-0.9525 -1.16355,-0.9525 -0.11608,0 -0.37036,-0.29765 -0.56506,-0.66145 -0.1947,-0.36381 -0.4971,-0.66146 -0.67201,-0.66146 -0.34537,0 -0.20723,-1.05403 0.51013,-3.89227 0.21292,-0.84243 0.37143,-2.3056 0.35225,-3.25148 -0.0192,-0.94589 0.12514,-2.4961 0.32071,-3.44492 0.31241,-1.51573 0.30298,-1.90606 -0.0778,-3.21572 -0.23833,-0.81983 -0.44139,-1.88899 -0.45124,-2.37592 -0.0161,-0.79412 -0.0457,-0.82793 -0.28798,-0.32818 -0.17343,0.35778 -0.19069,1.30059 -0.0482,2.63476 0.20557,1.92521 0.17332,2.17541 -0.43962,3.41078 -0.48777,0.98311 -0.68594,1.86653 -0.7547,3.36433 l -0.0933,2.03116 0.75471,0.11283 c 0.74886,0.11197 0.74817,0.11315 -0.0896,0.15248 -1.00493,0.0472 -1.31824,0.43135 -0.83215,1.02031 0.29965,0.36305 0.29304,0.4076 -0.0434,0.29236 -0.23848,-0.0817 -0.36587,-0.38926 -0.31918,-0.77063 0.0427,-0.34908 0.13542,-1.5203 0.20596,-2.60272 0.0852,-1.30738 0.35149,-2.46548 0.79324,-3.44984 0.65534,-1.46029 0.66115,-1.53349 0.40041,-5.04342 -0.14552,-1.95889 -0.40763,-4.16477 -0.58248,-4.90195 -0.29662,-1.25059 -0.27079,-1.43994 0.38582,-2.82789 0.91713,-1.93865 0.88786,-2.67798 -0.18695,-4.7216 -0.48987,-0.93143 -0.96329,-2.16976 -1.05205,-2.75185 -0.15668,-1.02759 -0.14786,-1.01981 0.30378,0.2679 0.25582,0.72942 0.78877,1.90528 1.18433,2.61301 0.39556,0.70773 0.71962,1.48015 0.72013,1.71648 7.9e-4,0.33627 0.3269,0.4474 1.50026,0.51112 0.82464,0.0448 1.91033,0.25314 2.41264,0.46302 0.50231,0.20988 1.01823,0.3816 1.14648,0.3816 0.12825,0 0.19283,-1.22039 0.1435,-2.71198 -0.0619,-1.87117 -0.0169,-2.46589 0.14515,-1.91823 0.46966,1.58737 0.066,8.9565 -0.74641,13.62604 -0.2152,1.23693 -0.49719,3.02287 -0.62664,3.96875 -0.12946,0.94589 -0.35043,2.13651 -0.49106,2.64583 -0.23932,0.86679 -0.25742,0.87926 -0.28277,0.19485 -0.0149,-0.40216 0.0805,-0.93794 0.21199,-1.19062 0.21737,-0.41772 0.86685,-5.09125 0.92676,-6.66872 0.0194,-0.50994 -0.2216,-0.78304 -1.09968,-1.24633 -0.61847,-0.32631 -1.12448,-0.49381 -1.12448,-0.37223 0,0.12159 -0.36,0.29307 -0.8,0.38107 -0.43999,0.088 -0.87654,0.35947 -0.97009,0.60326 -0.0935,0.24379 0.0504,1.5645 0.31982,2.9349 0.41601,2.11582 0.44261,2.72064 0.17634,4.00981 -0.17247,0.83499 -0.31357,2.37419 -0.31357,3.42046 0,1.71122 0.0531,1.90673 0.52916,1.9464 1.46741,0.12228 1.44431,0.14176 1.77839,-1.4993 0.32017,-1.57266 0.3221,-1.57513 0.20666,-0.26459 -0.38763,4.40072 -0.45441,6.74688 -0.19205,6.74688 0.15463,0 0.48422,0.62508 0.73242,1.38906 0.2482,0.76398 0.67449,1.63486 0.94731,1.93528 0.52597,0.5792 0.66917,1.43816 0.23974,1.43816 -0.14095,0 -0.19011,-0.17244 -0.10923,-0.38319 z m -4.5057,-6.67141 0.096,-1.27978 -0.37021,1.05834 c -0.47134,1.34745 -0.52701,2.20634 -0.11639,1.79571 0.16197,-0.16197 0.33772,-0.87039 0.39055,-1.57427 z m 16.96805,6.63457 c -0.4045,-0.21937 -0.66536,-0.51226 -0.5797,-0.65087 0.0857,-0.13861 -0.0129,-0.25202 -0.21893,-0.25202 -0.56029,0 -3.09612,-2.6441 -3.09612,-3.22831 0,-0.27879 0.38695,-0.98836 0.85989,-1.57684 l 0.8599,-1.06996 0.0205,-3.47859 c 0.0189,-3.2026 0.0783,-3.6071 0.7485,-5.09828 L 89.83,119.66481 89.52844,116.522 c -0.16586,-1.72855 -0.42331,-3.6091 -0.57211,-4.17901 -0.50517,-1.93482 -0.34632,-3.22868 0.54525,-4.44103 0.96635,-1.31402 1.02456,-2.20781 0.24279,-3.72758 -0.41739,-0.81142 -0.58785,-1.66283 -0.62769,-3.1351 -0.0627,-2.31575 -0.17997,-2.60905 -1.04357,-2.60905 -0.75025,0 -2.20663,-1.16481 -2.53446,-2.02706 -0.14153,-0.37226 -0.13364,-0.88605 0.0198,-1.28967 0.20667,-0.54357 0.16776,-0.70167 -0.20499,-0.83306 -0.25303,-0.0892 -0.74009,-0.4719 -1.08235,-0.85046 -0.5336,-0.59018 -0.60282,-0.88149 -0.48563,-2.04359 0.2732,-2.70903 2.26263,-5.1674 4.44677,-5.49493 1.48504,-0.2227 2.5107,-1.0638 2.93904,-2.41019 0.26324,-0.82744 0.481,-1.07239 0.99816,-1.12277 0.91294,-0.0889 1.37841,0.36024 2.07948,2.00666 0.33094,0.77718 0.99038,1.9678 1.46543,2.64583 1.01876,1.45404 1.74675,3.30717 1.74675,4.44639 0,0.48124 -0.29779,1.20484 -0.7276,1.76796 -0.40018,0.52431 -1.1295,1.49452 -1.62069,2.15603 l -0.89308,1.20274 0.69464,1.04968 c 0.38206,0.57732 0.68939,1.20106 0.68295,1.38608 -0.006,0.18502 -0.24344,-0.10237 -0.52669,-0.63864 -0.28325,-0.53627 -0.65323,-1.06048 -0.82219,-1.1649 -0.37365,-0.23093 -1.0842,0.66672 -0.90252,1.14016 0.0714,0.18608 0.0145,0.33832 -0.12646,0.33832 -0.14096,0 -0.25628,-0.29639 -0.25628,-0.65865 0,-0.41923 0.4809,-1.18969 1.32291,-2.11947 0.72761,-0.80345 1.3232,-1.54885 1.32354,-1.65645 3.4e-4,-0.1076 0.35725,-0.61235 0.79313,-1.12168 0.76588,-0.89492 1.09617,-2.38125 0.52917,-2.38125 -0.14552,0 -0.26539,-0.38695 -0.26637,-0.85989 -0.001,-0.56308 -0.40047,-1.47828 -1.15681,-2.65141 -0.63526,-0.98534 -1.35868,-2.32479 -1.6076,-2.97657 -0.48134,-1.26037 -0.8082,-1.48157 -1.05239,-0.71218 -0.15713,0.49507 -1.2085,0.74635 -1.2085,0.28883 0,-0.14507 0.11906,-0.19017 0.26458,-0.10023 0.14552,0.0899 0.26459,0.0304 0.26459,-0.1323 0,-0.16269 0.10658,-0.22994 0.23686,-0.14942 0.13027,0.0805 0.30366,-0.0277 0.38532,-0.2405 0.0816,-0.21278 0.0162,-0.46862 -0.14545,-0.56853 -0.19143,-0.11831 -0.2184,-0.0595 -0.0773,0.16879 0.15685,0.25379 0.0963,0.30426 -0.21967,0.18302 -0.62572,-0.24011 -1.04516,0.64824 -0.71548,1.51536 0.14193,0.37333 0.40984,0.68537 0.59534,0.69342 0.59676,0.0259 1.45519,1.40627 2.02815,3.2613 0.71692,2.32111 0.70926,2.43516 -0.23566,3.51136 -0.43656,0.49722 -0.79375,1.07606 -0.79375,1.28632 0,0.21026 -0.46311,0.61856 -1.02913,0.90732 -0.59236,0.3022 -1.15527,0.83786 -1.32634,1.26215 -0.16347,0.40542 -0.57708,1.11757 -0.91913,1.58256 -0.5774,0.78491 -0.61321,1.03114 -0.50023,3.43958 0.0858,1.82915 0.27022,2.88914 0.62534,3.59448 0.27701,0.55019 0.50366,1.29433 0.50366,1.65365 0,0.74266 0.0329,0.75143 1.39815,0.37231 1.186,-0.32936 1.76654,-0.18073 2.84778,0.72908 0.44193,0.37185 0.88777,0.59069 0.99076,0.48631 0.2304,-0.23351 0.18919,-4.66989 -0.0609,-6.55506 -0.10077,-0.75966 -0.0965,-1.2945 0.009,-1.18855 0.24491,0.24492 0.68475,3.88056 0.67974,5.6186 -0.002,0.7276 -0.19148,1.8439 -0.42085,2.48066 -0.59753,1.65883 -0.56974,5.52021 0.046,6.39015 0.54352,0.76793 1.16867,3.52414 0.8285,3.6528 -0.12825,0.0485 -0.23319,0.31639 -0.23319,0.59531 0,0.92844 -0.46232,0.52311 -0.76234,-0.66838 -0.42154,-1.67409 -0.36073,-1.96094 0.25564,-1.20575 l 0.53987,0.66146 -0.17507,-0.62166 c -0.0963,-0.34191 -0.20735,-0.91581 -0.24682,-1.27534 -0.0753,-0.68555 -0.55845,-1.34507 -0.8049,-1.09862 -0.0793,0.0793 -0.0247,0.45827 0.12133,0.84225 0.15196,0.39967 0.16275,0.69816 0.0252,0.69816 -0.32326,0 -0.46908,0.52014 -0.92882,3.31307 -0.21506,1.30651 -0.50783,2.85172 -0.6506,3.4338 -0.25023,1.02024 -0.25628,1.025 -0.16792,0.13229 0.0504,-0.50932 0.29993,-2.17619 0.55451,-3.70416 0.25458,-1.52797 0.47574,-3.3021 0.49148,-3.94251 0.0261,-1.06237 -0.0394,-1.18743 -0.74763,-1.42733 -0.92308,-0.31267 -3.58939,0.46521 -3.58939,1.04719 0,0.19464 -0.1786,0.3539 -0.39688,0.3539 -0.44571,0 -0.52826,1.93174 -0.16395,3.83646 0.16497,0.86251 0.0891,1.25785 -0.41022,2.13666 -1.23459,2.17304 -1.38248,5.52918 -0.2534,5.75064 0.54427,0.10675 0.5432,0.11162 -0.0323,0.14646 -0.70793,0.0428 -0.78468,0.68173 -0.1323,1.10119 0.37493,0.24106 0.38122,0.27273 0.0331,0.16644 -0.33728,-0.10298 -0.4643,0.11947 -0.5894,1.03213 -0.0877,0.63987 -0.0824,1.36433 0.0119,1.6099 0.11481,0.29918 0.0703,0.38408 -0.13478,0.25731 -0.4195,-0.25926 -1.45799,0.75946 -1.51957,1.49065 -0.0542,0.64321 0.35029,1.32747 0.66843,1.13084 0.1076,-0.0665 0.42153,0.0542 0.69763,0.26815 0.4883,0.37843 0.48756,0.3842 -0.0272,0.21124 -0.52189,-0.17536 -0.52224,-0.16991 -0.0251,0.39623 0.54146,0.61666 1.10362,0.78859 0.79556,0.2433 -0.10277,-0.1819 0.32547,0.17529 0.95164,0.79375 0.62618,0.61846 1.29855,1.12448 1.49416,1.12448 0.48971,0 0.45398,-0.14795 -0.30581,-1.26608 -0.3638,-0.53538 -0.66146,-1.11588 -0.66146,-1.28998 0,-0.17411 -0.14883,-0.47926 -0.33073,-0.67813 -1.03844,-1.13527 -1.5909,-1.86088 -1.17046,-1.53732 0.65198,0.50176 0.95567,0.0167 0.98822,-1.57849 0.0134,-0.65484 0.079,-1.42875 0.14588,-1.71979 0.28301,-1.23176 0.42001,-2.53044 0.52108,-4.93941 0.059,-1.40698 0.22712,-2.87325 0.37354,-3.25837 0.38335,-1.00829 0.3277,-2.57068 -0.13065,-3.66766 -0.59975,-1.4354 -0.46433,-1.8002 0.16248,-0.43769 0.46649,1.01404 0.5191,1.46533 0.35475,3.04271 -0.10614,1.01865 -0.20641,3.03706 -0.22281,4.48536 -0.0293,2.58869 -0.0186,2.63676 0.63162,2.83935 0.63492,0.19782 0.63171,0.20234 -0.0801,0.11273 -0.62675,-0.0789 -0.72915,-0.007 -0.66146,0.46624 0.0542,0.37888 0.33642,0.61411 0.87384,0.72842 0.61317,0.13043 0.65832,0.17596 0.19844,0.20014 -0.51375,0.027 -0.59961,0.18538 -0.62665,1.15578 -0.0172,0.61847 -0.0172,1.21378 0,1.32292 0.0172,0.10914 -0.11862,0.19844 -0.30189,0.19844 -0.18328,0 -0.49034,0.25156 -0.68235,0.55903 -0.31,0.49637 -0.26524,0.65194 0.39937,1.3881 l 0.7485,0.82907 -0.72656,-0.63949 c -1.32433,-1.16562 -1.00569,-0.40855 0.38802,0.92195 0.75299,0.71883 1.20953,1.09573 1.01454,0.83755 -0.195,-0.25818 -0.28768,-0.53627 -0.20598,-0.61797 0.0817,-0.0817 0.2934,0.12952 0.47042,0.46941 0.49747,0.95514 1.65475,2.05768 2.16841,2.06583 0.65551,0.0104 0.57859,-0.36687 -0.33073,-1.62214 -0.43656,-0.60266 -0.79267,-1.28623 -0.79136,-1.51906 10e-4,-0.23283 -0.32777,-0.72098 -0.7313,-1.08478 -0.40353,-0.3638 -0.61891,-0.57216 -0.47864,-0.46302 0.57715,0.44904 0.71073,0.10494 0.6676,-1.7198 -0.0249,-1.05502 0.0718,-2.21588 0.21486,-2.57968 0.18813,-0.47824 0.22497,-0.002 0.133,1.71979 -0.10642,1.99211 -0.0354,2.62399 0.43486,3.86661 0.30914,0.81696 0.7977,1.69861 1.0857,1.95924 0.71572,0.64772 0.70144,1.71477 -0.0229,1.71477 -0.82925,0 -1.58758,-0.47551 -2.8418,-1.78194 -1.3277,-1.38299 -1.66582,-1.36753 -0.71559,0.0327 0.76826,1.13209 0.83398,1.62753 0.24585,1.85322 -0.50088,0.1922 -0.35344,0.22298 -1.24298,-0.25943 z m -0.71975,-1.28415 c 0,-0.0642 -0.11907,-0.19026 -0.26459,-0.2802 -0.14552,-0.0899 -0.26458,-0.0374 -0.26458,0.11668 0,0.15411 0.11906,0.2802 0.26458,0.2802 0.14552,0 0.26459,-0.0525 0.26459,-0.11668 z m 1.32291,-6.26572 c 0,-1.6378 -0.40406,-1.67848 -0.62549,-0.063 -0.26055,1.90094 -0.23761,2.0698 0.22862,1.68287 0.25351,-0.2104 0.39687,-0.79555 0.39687,-1.6199 z M 89.10424,97.58837 c 0.31378,-0.44799 0.33473,-0.66116 0.0935,-0.95178 -0.25188,-0.30349 -0.21282,-0.35833 0.20597,-0.28922 1.08614,0.17924 1.60793,-0.8519 0.74894,-1.48001 -0.27959,-0.20444 -0.36893,-0.50411 -0.2562,-0.85931 0.15082,-0.47519 0.29536,-0.51782 1.12286,-0.33119 1.23482,0.2785 1.40498,0.1886 2.29535,-1.21266 0.41159,-0.64774 0.85807,-1.17772 0.99219,-1.17772 0.37648,0 0.29459,-0.67684 -0.33116,-2.73705 -0.57496,-1.89302 -1.62602,-3.34837 -2.41821,-3.34837 -0.59234,0 -1.50447,2.2012 -1.50633,3.63514 -7.9e-4,0.69281 -0.17949,1.60069 -0.39687,2.0175 -0.48107,0.9224 -0.51557,2.19221 -0.0645,2.37422 0.1819,0.0734 0.0628,0.14285 -0.26458,0.15434 -0.6685,0.0234 -0.7874,0.41442 -0.22362,0.73534 0.47979,0.27313 0.66924,1.2929 0.22362,1.20378 -0.1819,-0.0364 -0.33073,0.0668 -0.33073,0.22929 0,0.16518 0.23331,0.23443 0.52916,0.15706 0.29105,-0.0761 0.52917,-0.0305 0.52917,0.10144 0,0.13189 -0.28492,0.23981 -0.63315,0.23981 -0.65198,0 -1.12811,-0.65513 -0.67821,-0.93318 0.13916,-0.086 0.25303,-0.27544 0.25303,-0.42097 0,-0.14552 -0.10553,-0.19936 -0.23451,-0.11965 -0.35745,0.22092 -0.57689,-0.96426 -0.25119,-1.3567 0.45974,-0.55396 0.0689,-0.40245 -1.23923,0.48041 -1.55981,1.0527 -1.8961,1.85823 -1.24279,2.97686 0.84798,1.45194 2.38124,1.90663 3.07747,0.91262 z m 2.21291,-3.34759 c 0.0799,-0.24009 -0.0757,-0.32472 -0.48653,-0.26458 -0.78646,0.1151 -0.9761,0.68789 -0.21457,0.64808 0.32096,-0.0168 0.63645,-0.18935 0.7011,-0.3835 z m -3.7845,-1.39045 c 1.32277,-0.94995 2.1233,-2.49843 2.1233,-4.10719 0,-1.25496 -0.68088,-2.21916 -1.56709,-2.21916 -1.01115,0 -2.38673,1.19759 -3.13807,2.73204 -0.86269,1.76183 -0.9301,3.14208 -0.18964,3.88254 0.73642,0.73642 1.4477,0.66245 2.7715,-0.28823 z m 2.52017,-6.32635 c 0,-0.29398 -0.17639,-0.52917 -0.39687,-0.52917 -0.44531,0 -0.46321,0.0485 -0.23628,0.63982 0.22686,0.59119 0.63315,0.52018 0.63315,-0.11065 z m 19.8929,49.72713 c -0.33677,-0.13506 -0.53754,-0.36655 -0.44615,-0.51442 0.1035,-0.16747 0.32231,-0.11269 0.58028,0.14527 0.22777,0.22777 0.5871,0.34774 0.79852,0.26661 0.21142,-0.0811 0.43419,-0.14751 0.49505,-0.14751 0.0609,0 0.11065,-0.15292 0.11065,-0.33982 0,-0.18691 -0.35719,-0.55083 -0.79375,-0.80871 -0.43656,-0.25789 -0.79375,-0.58624 -0.79375,-0.72967 0,-0.3285 -0.36162,-0.77572 -1.84046,-2.27608 l -1.179,-1.19617 -0.60694,0.70561 c -0.61881,0.71942 -0.7772,1.20526 -0.39292,1.20526 0.11771,0 0.44513,0.17889 0.72761,0.39752 0.50582,0.39152 0.50559,0.39498 -0.0156,0.22919 -0.353,-0.1123 -0.22088,0.10411 0.39688,0.65006 1.05765,0.9347 1.37848,1.04077 1.13995,0.37688 -0.12597,-0.35061 0.005,-0.30729 0.53747,0.17841 0.3871,0.35279 0.70383,0.70402 0.70383,0.78052 0,0.0765 -0.14288,-0.004 -0.3175,-0.17841 -0.55992,-0.55992 -0.84167,-0.33871 -0.31882,0.25032 0.70279,0.79175 0.20644,0.5431 -1.39758,-0.70011 -0.75101,-0.58209 -1.50503,-1.3785 -1.67559,-1.76982 -0.27829,-0.63848 -0.22206,-0.82105 0.54795,-1.77923 0.81003,-1.00796 0.8507,-1.16068 0.72647,-2.7281 -0.0724,-0.91319 -0.0444,-2.01754 0.0621,-2.4541 0.14774,-0.60544 0.20112,-0.65689 0.225,-0.21684 0.0203,0.37451 0.24015,0.61713 0.62661,0.69157 0.51042,0.0983 0.49156,0.1198 -0.13229,0.15069 -0.5519,0.0273 -0.7276,0.17052 -0.7276,0.59299 0,0.49022 0.12682,0.54486 1.05833,0.45603 0.64133,-0.0612 1.05833,0.0112 1.05833,0.18366 0,0.16946 -0.37465,0.24086 -0.92604,0.17649 l -0.92604,-0.10811 v 1.23696 c 0,1.22952 0.34279,2.21546 0.8995,2.58719 0.5333,0.35609 0.59961,0.21206 0.54629,-1.18657 -0.0291,-0.76399 -0.002,-1.00211 0.0603,-0.52917 0.0623,0.47294 0.2106,0.8599 0.32952,0.8599 0.48811,0 0.86217,-0.84425 0.76038,-1.71615 -0.0597,-0.51133 -0.0134,-0.92969 0.10293,-0.92969 0.1163,0 0.21145,0.42154 0.21145,0.93676 0,0.88541 0.88525,2.50283 1.36985,2.50283 0.11659,0 0.20287,-1.51805 0.19172,-3.37344 -0.0111,-1.85539 0.12199,-4.26641 0.29587,-5.35781 0.17388,-1.09141 0.3471,-2.46063 0.38493,-3.04271 0.0378,-0.58208 0.21551,-1.95352 0.39485,-3.04764 0.46307,-2.82529 0.36204,-3.22567 -0.9033,-3.57943 -0.81387,-0.22753 -1.20168,-0.21337 -1.7581,0.0642 -1.31039,0.65371 -1.35382,0.8665 -0.69736,3.4173 0.37918,1.47338 0.53983,2.64828 0.43012,3.14556 -0.0963,0.43656 -0.18922,1.95834 -0.20644,3.38174 -0.0253,2.08801 0.0454,2.61194 0.36557,2.71198 1.22245,0.3819 1.31205,0.49625 0.46302,0.59086 -0.94582,0.1054 -1.14694,0.66256 -0.39687,1.09943 0.39588,0.23058 0.40183,0.27086 0.041,0.27773 -0.23211,0.004 -0.61971,-0.2104 -0.86134,-0.4774 -0.3642,-0.40243 -0.39703,-0.70849 -0.19196,-1.78979 0.13605,-0.71738 0.2539,-2.13604 0.2619,-3.15257 0.008,-1.01653 0.11226,-2.19796 0.2317,-2.62542 0.14695,-0.52588 0.0648,-1.33862 -0.25423,-2.51354 -0.25928,-0.95499 -0.53813,-2.07224 -0.61968,-2.48275 -0.0839,-0.42237 -0.28762,-0.70068 -0.46924,-0.64109 -0.46754,0.15341 -0.54389,1.64627 -0.19539,3.82064 0.23931,1.49313 0.2338,2.03552 -0.0255,2.51354 -0.18187,0.33525 -0.48692,1.20487 -0.67788,1.93247 l -0.34722,1.32292 0.10448,-1.10858 c 0.0575,-0.60972 0.29558,-1.49166 0.52915,-1.95987 0.34647,-0.69453 0.37837,-1.14813 0.17318,-2.4633 -0.13832,-0.8866 -0.39443,-2.6149 -0.56913,-3.84066 -0.17471,-1.22577 -0.47774,-2.53546 -0.67342,-2.91042 -0.53875,-1.03241 -0.43934,-1.79798 0.47797,-3.68092 0.81355,-1.66998 0.82652,-1.75204 0.46345,-2.93133 -0.20544,-0.66729 -0.37372,-2.20141 -0.37396,-3.40916 l -5.3e-4,-2.1959 -1.07927,-0.27152 c -1.71923,-0.43252 -2.41155,-2.03703 -1.57607,-3.65267 0.48585,-0.93954 1.89145,-2.14083 2.4772,-2.11714 0.30898,0.0125 0.24545,0.11241 -0.2103,0.33073 -3.02498,1.44908 -3.03865,4.96277 -0.0205,5.27313 0.48678,0.0501 0.74268,-0.12345 1.02201,-0.69293 0.28914,-0.58948 0.30036,-0.80437 0.0501,-0.95906 -0.17741,-0.10964 -0.35521,-0.54168 -0.39512,-0.96009 -0.0399,-0.4184 -0.16211,-0.97709 -0.27156,-1.24153 -0.11351,-0.27427 -0.0703,-0.60956 0.10072,-0.78052 0.16484,-0.16485 0.31352,-0.5438 0.3304,-0.84212 0.0253,-0.4463 0.0521,-0.46037 0.1517,-0.0794 0.0666,0.25466 0.33581,0.46302 0.59837,0.46302 0.697,0 1.20899,0.68431 0.66746,0.89211 -0.22955,0.0881 -0.35234,0.0549 -0.27285,-0.0737 0.0795,-0.1286 -0.0537,-0.30986 -0.29584,-0.4028 -0.24219,-0.0929 -0.53131,-0.0218 -0.64248,0.15808 -0.25438,0.41173 -0.0562,0.7492 0.44011,0.7492 0.5358,0 0.4755,0.23139 -0.21406,0.82152 l -0.59531,0.50947 0.66146,-0.0977 c 0.3638,-0.0538 0.51263,-0.0469 0.33073,0.0154 -0.32282,0.11041 -0.47421,0.60348 -0.1853,0.60348 0.65424,0 1.74689,-0.92882 1.88091,-1.59889 0.0861,-0.43031 0.27323,-0.78237 0.41593,-0.78237 0.3364,0 1.63535,-1.04637 3.02822,-2.43939 0.69495,-0.69502 1.16904,-1.44709 1.27785,-2.0271 0.0951,-0.50716 0.56461,-1.70397 1.04326,-2.65958 1.26201,-2.51957 1.30663,-2.77711 0.78361,-4.52315 -0.41416,-1.38261 -0.57826,-1.60457 -1.44166,-1.95003 -0.53587,-0.21441 -1.616,-0.37779 -2.40028,-0.36307 -2.65355,0.0498 -4.20411,-1.30153 -4.20411,-3.66398 0,-1.18997 0.12295,-1.55295 0.77205,-2.27942 0.70582,-0.78995 0.90532,-0.86407 2.32568,-0.86407 1.25801,0 1.71262,0.12586 2.38916,0.66146 0.89955,0.71213 1.81773,2.63875 1.56788,3.28986 -0.35525,0.92574 0.93488,3.29719 1.80878,3.32482 0.76536,0.0242 1.41553,0.60087 1.74589,1.54854 0.23769,0.68185 0.19611,1.02512 -0.23675,1.95435 -0.28879,0.61997 -0.64909,1.90112 -0.80065,2.84701 l -0.27557,1.71979 0.14209,-1.85208 c 0.0781,-1.01865 0.3168,-2.1903 0.53034,-2.60368 0.41519,-0.80374 0.25919,-2.82028 -0.21818,-2.82028 -0.14132,0 -0.18845,0.11084 -0.10472,0.2463 0.0837,0.13547 0.0393,0.31608 -0.0987,0.40136 -0.13799,0.0853 -0.30069,-0.17438 -0.36155,-0.57703 l -0.11066,-0.73209 -0.0396,0.76 c -0.0353,0.67672 -0.0879,0.72021 -0.4804,0.39688 -0.40053,-0.32998 -0.41959,-0.29067 -0.20882,0.43062 0.42804,1.46478 0.24555,2.62366 -0.72969,4.63382 -0.52853,1.08942 -1.04209,2.42252 -1.14124,2.96245 -0.17354,0.94502 -1.26122,2.17249 -3.35024,3.78082 -0.37802,0.29104 -0.94992,0.97565 -1.27088,1.52135 -0.32096,0.5457 -0.73194,0.99219 -0.91329,0.99219 -0.53085,0 -1.12201,0.82202 -1.71249,2.38125 -0.66427,1.75412 -0.70561,3.63989 -0.1189,5.42396 0.23928,0.7276 0.47064,1.4623 0.51412,1.63267 0.0599,0.23451 0.35619,0.22974 1.2199,-0.0197 1.51524,-0.43752 2.82386,-0.28459 3.57103,0.41734 0.33573,0.3154 0.67326,0.51062 0.75007,0.43382 0.0768,-0.0768 0.16657,-1.55564 0.19948,-3.28629 0.0479,-2.52161 -0.0365,-3.39628 -0.42507,-4.40341 -0.56964,-1.47639 -1.07359,-1.6795 -0.82056,-0.33073 0.12492,0.66588 0.0787,0.92604 -0.1644,0.92604 -0.18597,0 -0.25978,-0.0783 -0.16403,-0.17409 0.0958,-0.0957 0.0428,-0.33233 -0.11774,-0.52573 -0.51957,-0.62605 0.024,-1.72454 1.73657,-3.50919 1.52118,-1.58523 3.06483,-4.08934 3.60322,-5.84516 0.18807,-0.61334 0.20447,-0.61919 0.22556,-0.0804 0.0394,1.00539 -1.98944,4.52855 -3.51412,6.10257 l -1.4591,1.50633 0.48335,0.7998 c 0.63356,1.04834 1.42435,4.29059 1.22028,5.00313 -0.0881,0.30755 -0.3313,2.12757 -0.54048,4.0445 -0.43679,4.00279 -0.34963,4.36508 1.46353,6.08323 1.34379,1.27337 1.72484,2.37453 1.23457,3.5677 l -0.36432,0.88667 -0.54556,-1.19062 c -0.30005,-0.65485 -0.88377,-1.54308 -1.29715,-1.97386 l -0.75159,-0.78324 -0.33423,1.44469 c -0.18383,0.79459 -0.44933,2.57579 -0.59,3.95824 -0.14068,1.38245 -0.36886,3.10885 -0.50707,3.83646 -0.13821,0.7276 -0.26062,2.91247 -0.27201,4.85527 -0.0184,3.14642 0.0369,3.6056 0.50671,4.20287 0.29009,0.36878 0.52743,0.83825 0.52743,1.04325 0,0.20501 0.29766,0.69375 0.66146,1.0861 0.85602,0.92318 0.89024,1.91001 0.0661,1.90775 -0.32743,-7.9e-4 -0.92274,-0.17242 -1.32292,-0.38118 -0.62138,-0.32414 -0.7276,-0.32526 -0.7276,-0.008 0,0.20453 -0.2303,0.49512 -0.51178,0.64576 -0.58664,0.31396 -0.49439,0.31434 -1.29116,-0.005 z m 4.18419,-0.99768 c 0,-0.26567 -0.29766,-0.76267 -0.66146,-1.10445 -0.36381,-0.34177 -0.66146,-0.81232 -0.66146,-1.04565 0,-0.44445 -0.88064,-1.3356 -1.31984,-1.3356 -0.14051,0 -0.45703,-0.30764 -0.7034,-0.68364 l -0.44794,-0.68364 -0.34254,0.61749 c -0.18839,0.33963 -0.34675,0.46867 -0.3519,0.28677 -0.0179,-0.63165 -0.53855,-0.32701 -0.53855,0.31511 0,0.35522 0.11906,0.71943 0.26458,0.80937 0.14553,0.0899 0.26537,0.008 0.26633,-0.18282 0.001,-0.19049 0.23718,0.0108 0.52493,0.4474 0.28775,0.43656 0.64416,0.80864 0.79201,0.82683 0.14785,0.0182 0.38414,0.048 0.5251,0.0661 0.14095,0.0182 0.19323,0.19736 0.11618,0.39816 -0.16509,0.43021 1.39424,1.74433 2.07493,1.74865 0.27297,0.002 0.46303,-0.19534 0.46303,-0.48012 z m -2.90253,-0.82513 c -0.33716,-0.62998 -0.77564,-0.92293 -1.01768,-0.67991 -0.0995,0.0999 0.10024,0.40943 0.44379,0.68795 0.78961,0.64015 0.91981,0.63833 0.57389,-0.008 z m 4.78691,-18.71416 c -0.31191,-0.53637 -0.38722,-0.36469 -0.13191,0.30065 0.0907,0.23646 0.22072,0.37419 0.28884,0.30607 0.0681,-0.0681 -0.002,-0.34115 -0.15693,-0.60672 z m 0.0485,-0.97335 c 0.0756,-0.19701 -0.42589,-0.96456 -1.11442,-1.70568 l -1.25187,-1.34748 0.11464,0.84578 c 0.0631,0.46518 0.48157,1.23273 0.93004,1.70567 0.90067,0.94981 1.118,1.03231 1.32161,0.50171 z m -0.54003,-34.72497 c 0.18704,-0.18705 -0.05,-0.90017 -0.29921,-0.90017 -0.095,0 -0.32135,0.23812 -0.50311,0.52916 -0.28555,0.45725 -0.26423,0.52917 0.15685,0.52917 0.26802,0 0.55848,-0.0712 0.64547,-0.15816 z m -1.20914,-0.70174 c 1.76015,-1.93842 0.0116,-5.22552 -2.77968,-5.22552 -0.59245,0 -1.24247,0.29069 -2.12355,0.94964 -0.0491,0.0367 -0.18897,0.50876 -0.31081,1.04897 -0.27496,1.21914 0.0265,2.06159 1.09478,3.05952 0.6839,0.63887 1.04073,0.76271 2.19758,0.76271 1.09571,0 1.49282,-0.12302 1.92168,-0.59532 z m -42.78166,55.76094 c -0.18986,-0.22875 -0.21557,-0.39687 -0.0607,-0.39687 0.14777,0 0.33721,0.17859 0.42097,0.39687 0.0838,0.21828 0.11108,0.39688 0.0607,0.39688 -0.0504,0 -0.23981,-0.1786 -0.42096,-0.39688 z m 54.90104,-0.31711 c -1.52355,-0.82194 -3.53358,-2.45273 -3.71062,-3.01051 -0.0981,-0.30916 -0.0542,-0.68633 0.0977,-0.83817 0.19169,-0.19169 0.22742,-0.09 0.1169,0.33259 -0.11113,0.42495 -0.066,0.55105 0.14965,0.4178 0.16984,-0.10497 0.6093,0.0455 0.97657,0.3344 0.56717,0.44614 0.59867,0.53855 0.20914,0.61357 -0.37158,0.0716 -0.3187,0.17998 0.2787,0.57141 0.84875,0.55613 1.20217,0.40664 0.66293,-0.2804 -0.34287,-0.43685 -0.33172,-0.44188 0.16074,-0.0725 0.29104,0.21829 0.62438,0.54571 0.74075,0.72761 0.11637,0.1819 0.38426,0.33073 0.59531,0.33073 0.21105,0 0.38373,0.13275 0.38373,0.29501 0,0.17742 -0.27281,0.11626 -0.68441,-0.15343 -0.75441,-0.49431 -1.1483,-0.40989 -0.52011,0.11147 0.63714,0.52878 2.26285,0.81802 2.26285,0.40259 0,-0.19083 -0.0893,-0.38665 -0.19843,-0.43516 -0.10915,-0.0485 -0.69246,-0.65687 -1.29626,-1.35193 -1.21877,-1.40296 -2.9113,-2.66076 -3.27659,-2.435 -0.13035,0.0806 -0.0729,-0.2463 0.12769,-0.72635 0.23535,-0.56326 0.40443,-2.32616 0.47675,-4.97074 0.0826,-3.01947 0.22691,-4.36533 0.54845,-5.11404 0.3,-0.69855 0.35863,-1.16143 0.18758,-1.48103 -0.13685,-0.2557 -0.37012,-1.21814 -0.51838,-2.13876 -0.14826,-0.92062 -0.37841,-1.74244 -0.51144,-1.82626 -0.21841,-0.13763 -0.58136,-1.2724 -1.40647,-4.39735 -0.25323,-0.95905 -0.20586,-1.21955 0.45707,-2.51354 0.62277,-1.21562 0.75028,-1.81968 0.80738,-3.82486 0.0373,-1.30969 0.19519,-2.79718 0.35086,-3.30554 0.38847,-1.26859 0.40406,-1.23768 -0.71433,-1.41652 -0.72924,-0.11661 -1.12047,-0.36786 -1.45521,-0.93454 -0.60361,-1.02182 -0.57763,-1.76003 0.10057,-2.85737 0.62076,-1.00442 2.89962,-2.27862 3.08431,-1.72456 0.0581,0.17416 0.29461,0.31666 0.52569,0.31666 0.23107,0 0.60811,0.1626 0.83785,0.36134 0.79597,0.68855 1.73444,0.72335 2.58402,0.0958 2.41262,-1.78205 7.45666,-6.84233 7.63648,-7.66106 0.21457,-0.97693 0.82873,-2.18651 1.31519,-2.59023 0.22112,-0.18351 0.39139,-0.76683 0.39139,-1.34083 0,-1.20769 -0.90158,-3.75183 -1.50713,-4.25291 -0.68106,-0.56356 -1.39115,-2.37394 -1.39748,-3.5629 -0.01,-1.80006 0.27279,-2.66618 1.23616,-3.79166 0.81592,-0.95322 1.04467,-1.07006 2.09486,-1.07006 0.97369,0 1.32082,0.14515 1.99399,0.8338 1.04778,1.07186 1.54835,2.28937 1.54835,3.76597 0,1.37228 -0.73868,3.24532 -1.57506,3.99381 -0.32191,0.28809 -0.75223,0.92334 -0.95626,1.41166 -0.46773,1.11943 -0.56193,3.41151 -0.15685,3.81659 0.60898,0.60897 0.16813,3.11603 -0.54643,3.10745 -0.23356,-0.003 -0.21523,-0.0829 0.0596,-0.26053 0.34248,-0.22133 0.33588,-0.25704 -0.0481,-0.26053 -0.55762,-0.005 -1.31504,1.06368 -1.94897,2.75015 -0.26856,0.71444 -0.53061,1.17203 -0.58234,1.01686 -0.16079,-0.48239 1.4213,-3.67115 2.03455,-4.10069 0.41799,-0.29277 0.48357,-0.44701 0.23272,-0.54729 -0.23088,-0.0923 -0.19232,-0.14672 0.11373,-0.16053 0.25466,-0.0115 0.46302,-0.13995 0.46302,-0.28547 0,-0.14552 -0.13394,-0.23482 -0.29765,-0.19844 -0.16371,0.0364 -0.35223,-0.0827 -0.41893,-0.26458 -0.0667,-0.18191 0.0673,-0.33073 0.29766,-0.33073 0.23041,0 0.41892,-0.11907 0.41892,-0.26459 0,-0.14552 -0.16801,-0.26458 -0.37335,-0.26458 -0.56355,0 -1.69431,1.48127 -2.00143,2.62182 -0.19706,0.73181 -0.94763,1.69472 -2.72331,3.4937 -2.44452,2.4766 -2.74191,2.74732 -5.48785,4.99579 -0.79893,0.65419 -1.61071,1.33958 -1.80396,1.52309 -0.19325,0.18351 -0.58459,0.45847 -0.86966,0.61103 -0.85738,0.45886 -1.86515,3.0647 -1.98901,5.14311 -0.0607,1.01865 -0.14891,2.41169 -0.196,3.09565 l -0.0856,1.24356 0.91825,-0.38367 c 1.70637,-0.71296 3.94696,-0.41696 4.71367,0.62272 0.25156,0.34111 0.30902,0.33647 0.45215,-0.0365 0.42982,-1.1201 0.74373,-4.92625 0.53824,-6.5261 -0.23487,-1.82857 -0.65585,-2.17661 -0.89267,-0.73802 -0.12539,0.76174 -0.16749,0.80041 -0.33746,0.30994 -0.34414,-0.99302 0.28269,-1.91754 3.71176,-5.47458 1.85048,-1.91953 3.39856,-3.53966 3.44018,-3.60029 0.0416,-0.0606 0.0757,0.028 0.0757,0.19706 0,0.16902 -1.30969,1.64498 -2.91042,3.27989 -2.85268,2.91362 -2.91011,2.99631 -2.89465,4.16856 0.009,0.65779 0.11304,1.78903 0.23192,2.51388 0.14557,0.88756 0.093,1.96749 -0.16109,3.30729 -0.20747,1.09416 -0.44538,2.83434 -0.52869,3.86706 -0.14625,1.81309 -0.12541,1.90182 0.60563,2.57969 0.41641,0.38611 0.85938,0.70202 0.9844,0.70202 0.12501,0 0.63157,0.19183 1.12567,0.4263 0.71815,0.34079 0.97431,0.68201 1.27691,1.70098 0.44703,1.50532 0.30079,2.55755 -0.28758,2.06924 -0.20713,-0.17191 -0.31302,-0.47825 -0.2353,-0.68078 0.0777,-0.20252 0.0425,-0.30719 -0.0782,-0.23258 -0.12071,0.0746 -0.45942,-0.18891 -0.75269,-0.58558 -0.57269,-0.7746 -2.33686,-1.85193 -2.60065,-1.58815 -0.0881,0.0881 -0.27009,1.32181 -0.40441,2.74156 -0.13432,1.41976 -0.31714,2.65214 -0.40627,2.73863 -0.0891,0.0865 -0.0784,-0.85998 0.0238,-2.10326 0.14425,-1.75409 0.1058,-2.32636 -0.17159,-2.55445 -0.50701,-0.41689 -1.8153,-0.47453 -2.6898,-0.11849 -0.40966,0.16678 -0.85614,0.30324 -0.99219,0.30324 -0.38014,0 -0.28805,1.81972 0.17406,3.43959 0.26487,0.92848 0.40512,2.4129 0.38745,4.10104 -0.0152,1.45521 0.0482,3.15185 0.14093,3.77031 0.15826,1.05541 0.22099,1.12448 1.02124,1.12448 h 0.85263 l 0.31385,-2.57969 c 0.17262,-1.41883 0.42496,-3.11547 0.56076,-3.77031 0.23938,-1.15434 0.24346,-1.14225 0.1338,0.39688 -0.0622,0.87312 -0.22957,2.42938 -0.37189,3.45835 -0.14233,1.02896 -0.20693,3.0816 -0.14354,4.56141 0.12444,2.90553 0.007,2.62929 2.72627,6.41045 0.48597,0.67575 0.17389,1.05485 -0.83301,1.01188 -0.72042,-0.0307 -0.74724,-0.0534 -0.18283,-0.1547 1.1144,-0.19992 1.11996,-0.47571 0.0322,-1.59656 -0.57575,-0.59326 -0.99425,-1.13124 -0.93,-1.19548 0.0643,-0.0643 -0.0647,-0.26743 -0.28645,-0.45151 -0.2218,-0.18407 -0.40335,-0.46893 -0.40345,-0.63301 -1e-4,-0.16408 -0.31331,-0.31647 -0.69602,-0.33864 -0.38271,-0.0222 -0.79465,-0.20018 -0.91541,-0.39559 -0.17384,-0.28128 -0.30266,-0.24533 -0.61848,0.1726 -0.6337,0.83858 -0.4872,1.38628 0.56141,2.09883 0.99519,0.67625 1.66287,0.70562 0.72668,0.032 -0.28226,-0.20311 -0.75133,-0.56413 -1.04237,-0.80226 -0.5127,-0.41951 -0.50933,-0.4233 0.1081,-0.12203 0.84076,0.41022 2.44731,1.88124 2.25959,2.06895 -0.0811,0.0811 -0.25362,-0.0242 -0.38332,-0.23404 -0.1297,-0.20985 -0.33158,-0.28503 -0.44864,-0.16706 -0.11705,0.11797 0.14437,0.50535 0.58093,0.86085 0.43656,0.35549 0.60076,0.5761 0.36487,0.49024 -0.25523,-0.0929 -0.4929,0.0107 -0.58701,0.25597 -0.20214,0.52677 -1.14367,0.5105 -2.15911,-0.0373 z m -2.78343,-2.5997 c -0.18408,-0.2218 -0.38917,-0.34878 -0.45577,-0.28219 -0.18348,0.18349 0.18932,0.68546 0.50909,0.68546 0.17544,0 0.15537,-0.15181 -0.0533,-0.40327 z m 1.9345,-2.97247 c 0.0133,-0.90106 -0.0563,-1.71875 -0.15467,-1.81709 -0.0983,-0.0983 0.0173,-0.32219 0.25695,-0.49744 0.67406,-0.49288 0.24605,-1.1889 -0.7311,-1.1889 -0.743,0 -0.81942,0.0705 -0.708,0.65338 0.0687,0.35935 0.0262,1.27777 -0.0944,2.04092 -0.19453,1.23059 -0.15451,1.45656 0.35372,1.99754 0.31518,0.3355 0.68113,0.57397 0.81323,0.52994 0.13209,-0.044 0.25103,-0.81729 0.26431,-1.71835 z m 2.68026,-0.79145 c -0.0565,-1.12778 -0.10477,-2.19935 -0.10717,-2.38125 -0.003,-0.20075 -0.36829,-0.33073 -0.93041,-0.33073 -1.26121,0 -1.30643,0.85976 -0.0661,1.25763 0.85179,0.27325 0.85304,0.27611 0.1323,0.30286 -0.66566,0.0247 -0.72761,0.11549 -0.72761,1.06614 0,0.80746 0.15543,1.16139 0.69714,1.5875 0.38343,0.30161 0.78885,0.54837 0.90093,0.54837 0.11208,0 0.15752,-0.92273 0.10097,-2.05052 z m -2.03645,-0.39213 c -0.0589,-0.47555 -0.10828,-0.15026 -0.10977,0.72286 -0.002,0.87313 0.0467,1.26221 0.10707,0.86464 0.0604,-0.39758 0.0616,-1.11195 0.003,-1.5875 z m -0.37364,-5.95787 c -0.0328,-1.85539 -0.23354,-4.08781 -0.44603,-4.96093 -0.21248,-0.87313 -0.46409,-2.0495 -0.55912,-2.61415 -0.12531,-0.74457 -0.25249,-0.94696 -0.46286,-0.73659 -0.21037,0.21037 -0.12997,0.94286 0.2926,2.66592 0.54415,2.2188 0.5553,2.44134 0.16858,3.3669 -0.45145,1.08045 -0.83462,4.55979 -0.57631,5.23296 0.0939,0.24459 0.46968,0.41933 0.90188,0.41933 h 0.74095 z m 7.51247,-8.86354 c 0.006,-0.1819 0.0554,-0.50188 0.11024,-0.71108 0.0648,-0.24699 -0.50319,-0.68692 -1.61999,-1.25472 -0.94589,-0.48091 -1.74956,-0.8753 -1.78594,-0.87642 -0.0364,-0.001 -0.0661,0.27169 -0.0661,0.60626 0,0.44526 0.23047,0.69277 0.85989,0.92344 0.47294,0.17332 1.21709,0.60968 1.65365,0.96968 0.43656,0.35999 0.80367,0.65882 0.8158,0.66406 0.0121,0.005 0.0267,-0.13932 0.0325,-0.32122 z m -8.38055,-15.9501 c 0.56323,-0.85445 0.67384,-1.30748 0.25622,-1.04938 -0.14553,0.0899 -0.26459,-0.0151 -0.26459,-0.23335 0,-0.21828 0.11906,-0.47046 0.26459,-0.5604 0.14552,-0.0899 0.26458,-0.2954 0.26458,-0.45658 0,-0.16119 -0.0783,-0.21473 -0.17409,-0.11898 -0.31195,0.31195 -0.8332,-0.35625 -0.69378,-0.88937 0.17703,-0.67696 -0.28869,-0.66542 -1.42242,0.0353 -2.26081,1.39725 -2.06194,4.17267 0.29313,4.09089 0.75095,-0.0261 1.07129,-0.20359 1.47636,-0.8181 z m 2.17039,-2.10771 c 0.36193,-0.49262 0.20507,-0.69791 -0.39282,-0.51413 -0.75001,0.23054 -0.67276,0.13643 -0.83174,1.0132 -0.13606,0.75029 -0.1352,0.75079 0.44693,0.25862 0.32079,-0.27121 0.67072,-0.61217 0.77763,-0.75769 z m -1.12042,-0.89774 c 0,-0.32459 -0.74541,-0.58516 -0.91038,-0.31824 -0.0735,0.11887 -0.0574,0.29227 0.0356,0.38532 0.25216,0.25216 0.87476,0.20441 0.87476,-0.0671 z m 13.22916,-14.84497 c 0,-0.38806 -0.17639,-0.52917 -0.66146,-0.52917 -0.62256,0 -0.88672,0.48029 -0.48506,0.88195 0.39477,0.39477 1.14652,0.16346 1.14652,-0.35278 z m 0.84634,-1.78594 c 2.06089,-2.20272 2.03402,-5.01665 -0.0648,-6.78267 -0.69756,-0.58696 -1.04462,-0.70538 -1.68962,-0.57655 -1.81271,0.36208 -2.92459,2.79424 -2.31661,5.0674 0.73384,2.74376 2.64273,3.81839 4.071,2.29182 z m -2.2354,-2.99775 c -0.95759,-0.55775 -0.0989,-2.07946 0.87827,-1.55648 0.57593,0.30823 0.66974,1.0483 0.19329,1.52475 -0.37912,0.37913 -0.47047,0.38183 -1.07156,0.0317 z m 1.12448,-0.77256 c 0,-0.62376 -0.67171,-0.86273 -1.07139,-0.38115 -0.24537,0.29566 -0.24537,0.46664 0,0.7623 0.39968,0.48158 1.07139,0.24261 1.07139,-0.38115 z m -45.90772,52.65615 c 0.0885,-0.14329 0.26113,-0.76837 0.3835,-1.38906 l 0.22249,-1.12855 0.029,0.97055 c 0.0331,1.10836 -0.17737,1.80758 -0.5441,1.80758 -0.13854,0 -0.17944,-0.11724 -0.0909,-0.26052 z m -34.4907,-1.79 c 0.15752,-0.40019 0.37605,-1.62058 0.48561,-2.71198 l 0.19921,-1.98438 0.037,1.79444 c 0.0217,1.05163 -0.12168,2.17425 -0.34636,2.71198 -0.45154,1.08068 -0.79434,1.2541 -0.37546,0.18994 z M 34.74956,109.13946 c -0.18407,-0.2218 -0.26783,-0.47012 -0.18612,-0.55183 0.0817,-0.0817 0.28146,0.0998 0.44389,0.40327 0.34656,0.64756 0.21791,0.72171 -0.25777,0.14856 z m 18.96947,-1.11808 c -0.0836,-0.40019 -0.57824,-1.20386 -1.0992,-1.78594 -0.52096,-0.58208 -1.292,-1.55715 -1.71342,-2.16682 -0.42141,-0.60966 -1.03986,-1.50263 -1.37433,-1.98437 -0.33447,-0.48174 -1.14255,-1.44144 -1.79574,-2.13267 -1.09681,-1.16067 -1.28497,-1.25677 -2.46088,-1.25677 -1.12542,0 -1.30342,0.0793 -1.53296,0.68304 -0.18525,0.48726 -0.14563,1.12319 0.13827,2.21877 0.22229,0.85786 0.32363,1.90734 0.22957,2.37759 -0.42545,2.12726 -3.87855,2.44277 -5.51035,0.50347 -0.53084,-0.63086 -0.67012,-1.08503 -0.67012,-2.18517 0,-1.74358 0.62911,-2.41447 2.44358,-2.6059 0.68912,-0.0727 1.55183,-0.32802 1.91712,-0.56736 0.56962,-0.37323 0.61867,-0.50801 0.34461,-0.94686 -0.27229,-0.436 -0.19969,-0.6602 0.49089,-1.51598 0.62062,-0.76908 1.03152,-1.02324 1.75439,-1.08514 0.80457,-0.0689 0.99596,0.0259 1.29616,0.64192 0.48239,0.9899 0.91409,1.05979 1.09247,0.17685 0.19512,-0.96578 1.93978,-2.98689 2.57834,-2.98689 0.27458,0 0.63982,0.26789 0.81163,0.59531 0.30325,0.57789 0.29709,0.58175 -0.21061,0.1317 -0.50454,-0.44724 -0.56125,-0.4283 -1.60616,0.53636 -1.08333,1.00012 -1.57904,2.08896 -1.29181,2.83747 0.084,0.21882 0.60282,0.60455 1.15301,0.85717 1.47448,0.67702 3.77847,2.41022 3.77847,2.84239 0,0.20647 0.20835,0.49675 0.46302,0.64507 0.41906,0.24409 0.40958,0.27045 -0.0999,0.27773 -0.3096,0.004 -0.71113,0.18664 -0.89229,0.40492 -0.18116,0.21828 -0.55598,0.39688 -0.83294,0.39688 -0.46473,0 -0.47437,0.0561 -0.12499,0.7276 0.20822,0.40018 0.98518,1.41914 1.72659,2.26436 0.83335,0.95003 1.34801,1.78341 1.34801,2.18281 0,0.85723 -0.16222,0.81948 -0.35043,-0.0815 z m -10.83344,-3.18089 c 0.84157,-0.65194 0.99673,-1.84647 0.38586,-2.97068 -0.58688,-1.08008 -1.41939,-1.57814 -2.64699,-1.5836 -1.20133,-0.005 -1.79348,0.36578 -2.1317,1.33603 -0.82007,2.35243 2.43355,4.73608 4.39283,3.21825 z m 8.55543,-2.45082 c 0.64527,-0.34534 0.67381,-1.5251 0.0488,-2.01517 -0.25466,-0.19966 -1.23693,-0.80058 -2.18281,-1.33537 -0.94589,-0.53479 -2.09962,-1.25645 -2.56385,-1.60369 -0.46422,-0.34724 -1.05953,-0.60894 -1.32291,-0.58156 -0.92443,0.0961 -1.19722,-0.0104 -1.04465,-0.40802 0.0838,-0.21829 0.037,-0.39688 -0.10398,-0.39688 -0.14096,0 -0.25628,0.18562 -0.25628,0.41249 0,0.22687 -0.11906,0.33891 -0.26459,0.24897 -0.14552,-0.0899 -0.26458,-0.0445 -0.26458,0.10106 0,0.14552 0.11906,0.33817 0.26458,0.42811 0.14553,0.0899 0.26459,0.0304 0.26459,-0.1323 0,-0.16269 0.13177,-0.21437 0.29283,-0.11483 0.49288,0.30462 -0.33745,0.63874 -0.87389,0.35165 -0.31711,-0.16972 -0.47728,-0.16352 -0.47728,0.0185 0,0.15064 0.14883,0.27571 0.33073,0.27794 0.22383,0.003 0.20244,0.0939 -0.0661,0.28192 -0.30603,0.21426 -0.25303,0.23712 0.23157,0.0999 0.46467,-0.13159 0.57524,-0.0919 0.4243,0.15235 -0.15668,0.2535 0.11199,0.29993 1.15547,0.19967 1.25011,-0.12013 1.44341,-0.0589 2.40006,0.75994 0.57224,0.48982 1.47626,1.48428 2.00893,2.20992 1.02468,1.39589 1.18636,1.48044 1.99915,1.04545 z m -8.57366,-2.48836 c -0.0908,-0.2365 -0.32678,-0.33789 -0.56962,-0.2447 -0.36496,0.14004 -0.35828,0.20036 0.0557,0.50307 0.54903,0.40146 0.73185,0.30955 0.51391,-0.25837 z m 3.00001,-3.72004 c 0,-0.21828 -0.17859,-0.39687 -0.39687,-0.39687 -0.21828,0 -0.39688,0.17859 -0.39688,0.39687 0,0.21828 0.1786,0.39688 0.39688,0.39688 0.21828,0 0.39687,-0.1786 0.39687,-0.39688 z m 9.32878,11.52221 -0.5839,-1.1778 0.68062,0.68062 c 0.38427,0.38427 0.63851,0.8971 0.5839,1.1778 -0.0715,0.36757 -0.24893,0.19015 -0.68062,-0.68062 z m -24.93173,-0.68727 c -0.50522,-0.35666 -0.76053,-0.64848 -0.56736,-0.64848 0.19317,0 0.70496,0.29766 1.13731,0.66146 1.00332,0.84424 0.63233,0.83579 -0.56995,-0.013 z m 44.17795,-1.31353 c 0,-0.40462 -0.41113,-1.25212 -0.96089,-1.98078 -0.45644,-0.60498 -0.74446,-1.69157 -0.39037,-1.47273 0.16111,0.0996 0.29293,0.40622 0.29293,0.68145 0,0.27522 0.15731,0.59561 0.34957,0.71198 0.45303,0.27421 1.316,2.46055 0.9712,2.46055 -0.14434,0 -0.26244,-0.18021 -0.26244,-0.40047 z m 49.76256,-0.54762 c 0.0127,-0.30823 0.0754,-0.37092 0.15985,-0.15986 0.0764,0.191 0.067,0.4192 -0.0209,0.50712 -0.0879,0.0879 -0.15046,-0.0683 -0.13897,-0.34726 z m -91.68344,-0.25095 c -0.28248,-0.21366 -0.38635,-0.38846 -0.23084,-0.38846 0.15552,0 0.43098,0.17859 0.61214,0.39687 0.41201,0.49644 0.2824,0.49358 -0.3813,-0.008 z m 58.85422,0.29709 c 0,-0.0504 0.17859,-0.23981 0.39687,-0.42097 0.22876,-0.18985 0.39688,-0.21557 0.39688,-0.0607 0,0.14777 -0.1786,0.3372 -0.39688,0.42096 -0.21828,0.0838 -0.39687,0.11108 -0.39687,0.0607 z m 17.99166,-0.0711 c 0,-0.13424 0.10751,-0.35718 0.23891,-0.49542 0.13139,-0.13825 0.29618,-0.48948 0.36618,-0.78052 0.10025,-0.41678 0.1338,-0.38151 0.15797,0.16604 0.0169,0.38236 -0.1479,0.84343 -0.36618,1.02458 -0.21828,0.18116 -0.39688,0.21955 -0.39688,0.0853 z m -31.19994,-0.50424 c 0.0127,-0.30823 0.0754,-0.37092 0.15985,-0.15985 0.0764,0.19099 0.067,0.4192 -0.0209,0.50712 -0.0879,0.0879 -0.15045,-0.0684 -0.13896,-0.34727 z m 47.51341,-0.26007 c 0.53486,-0.53486 0.64549,-0.84657 0.52113,-1.46836 -0.0976,-0.4879 -0.0583,-0.72786 0.10272,-0.62831 0.72985,0.45107 -0.14976,2.77566 -1.05029,2.77566 -0.13891,0 0.053,-0.30555 0.42644,-0.67899 z m -68.1718,-0.90851 c -0.34203,-0.22103 -0.33504,-0.25704 0.0505,-0.26053 0.24607,-0.002 0.52099,0.11501 0.61093,0.26053 0.20695,0.33486 -0.14331,0.33486 -0.66146,0 z m 20.10833,-1.17129 c 0,-0.25616 -0.23812,-0.52802 -0.52916,-0.60413 -0.29105,-0.0761 -0.52917,-0.24774 -0.52917,-0.38141 0,-0.35537 1.062,0.27101 1.23826,0.73034 0.0825,0.21504 0.0758,0.46522 -0.0149,0.55596 -0.0907,0.0907 -0.16498,-0.0446 -0.16498,-0.30076 z m -23.70534,-0.48235 -0.50403,-0.59531 0.59531,0.50402 c 0.55945,0.47367 0.71576,0.6866 0.50403,0.6866 -0.0502,0 -0.3181,-0.26789 -0.59531,-0.59531 z m 9.22942,-0.33395 c -0.90925,-0.90925 -0.92695,-0.96764 -0.82178,-2.71198 0.1402,-2.32541 1.00782,-3.75341 2.84662,-4.6852 1.35962,-0.68897 2.22815,-1.64608 3.13673,-3.45664 0.40094,-0.79897 0.46763,-1.18903 0.26516,-1.55084 -0.20563,-0.36742 -0.14561,-0.65085 0.25019,-1.1815 0.71081,-0.95299 1.25522,-0.99625 2.41581,-0.19196 0.54322,0.37645 1.13172,0.68446 1.30778,0.68446 0.17605,0 0.52684,0.11267 0.77952,0.25037 0.25269,0.1377 1.10983,0.56222 1.90475,0.94338 1.70257,0.81636 3.18489,2.24492 3.18489,3.06937 0,0.66485 -1.11793,2.68266 -2.03307,3.6696 -0.33702,0.36346 -0.61276,0.72907 -0.61276,0.81247 0,0.0834 0.36809,0.50134 0.81798,0.92875 0.97559,0.92684 1.83236,2.50536 1.81624,3.34625 -0.009,0.44834 -0.1049,0.34433 -0.37043,-0.40009 -0.53013,-1.48623 -1.72989,-3.0951 -2.30808,-3.0951 -0.71487,0 -0.91409,0.74477 -0.31963,1.19493 0.27292,0.20666 0.35589,0.37953 0.18438,0.38416 -0.52514,0.0142 -1.10373,-0.7475 -0.96649,-1.2723 0.0714,-0.27295 0.63882,-1.07871 1.26098,-1.79059 1.14486,-1.30995 2.2663,-3.22788 2.2663,-3.87592 0,-1.04256 -3.29059,-3.15662 -6.48229,-4.16459 -0.58209,-0.18383 -1.19783,-0.44461 -1.36833,-0.57952 -0.19599,-0.15508 -0.50834,-0.12143 -0.8493,0.0915 -0.50416,0.31486 -0.51079,0.3683 -0.10171,0.82033 0.41059,0.45369 0.40585,0.47333 -0.0768,0.31825 -0.49645,-0.15953 -0.49594,-0.15008 0.0148,0.27207 0.36044,0.29791 0.81443,0.39266 1.42385,0.29717 1.12457,-0.17619 2.35906,0.3386 3.17679,1.32476 0.34754,0.41912 0.86784,1.02304 1.15621,1.34204 l 0.52431,0.57999 -0.75933,0.82716 c -0.41764,0.45494 -1.32488,1.3995 -2.0161,2.09903 -1.21987,1.23452 -1.25794,1.3214 -1.29642,2.95847 -0.0218,0.92763 -0.0863,1.38895 -0.14328,1.02515 -0.0923,-0.58934 -0.22397,-0.65818 -1.20738,-0.63139 -0.96674,0.0263 -1.17921,0.1493 -1.71172,0.99071 -0.75666,1.19555 -2.44271,2.28651 -3.53377,2.28651 -0.59115,0 -1.08924,-0.26377 -1.75472,-0.92926 z m 2.88318,0.16125 c 0.33689,-0.13136 0.99949,-0.62174 1.47243,-1.08973 0.90692,-0.89741 1.07953,-1.76347 0.60186,-3.01983 -0.15812,-0.41588 -0.16538,-0.92238 -0.0188,-1.30804 0.60666,-1.59563 -1.77029,-2.40267 -3.48351,-1.18275 -2.02867,1.44454 -2.44243,5.65761 -0.64129,6.52974 0.72287,0.35002 1.30201,0.36978 2.06926,0.0706 z m 5.24274,-3.63459 c 0,-0.38414 -0.20836,-0.85314 -0.46302,-1.04222 -0.38932,-0.28907 -0.41038,-0.43 -0.13229,-0.88548 0.42516,-0.69635 0.41838,-0.9037 -0.024,-0.73395 -0.68893,0.26437 -1.0094,-0.19789 -0.71232,-1.02749 0.2555,-0.71351 0.24649,-0.73329 -0.11931,-0.26195 -0.44149,0.56888 -0.7646,0.45254 -0.51921,-0.18694 0.2704,-0.70464 0.82842,-0.71764 2.42054,-0.0564 0.84369,0.35042 1.33154,0.64216 1.08411,0.64831 -0.24743,0.006 -0.58304,0.21954 -0.74581,0.4742 -0.25889,0.40506 -0.27972,0.38669 -0.16641,-0.14681 0.0997,-0.46956 -0.0229,-0.66779 -0.53317,-0.86179 -0.79565,-0.30251 -1.14744,-0.13046 -1.14744,0.5612 0,0.33716 0.18175,0.51355 0.52917,0.51355 0.52385,0 0.66566,0.36639 0.56322,1.45521 -0.0413,0.43873 0.0847,0.38221 0.73691,-0.33073 0.43269,-0.47295 0.91248,-0.8599 1.0662,-0.8599 0.15372,0 0.2795,-0.30468 0.2795,-0.67707 0,-0.37239 0.10176,-0.61419 0.22612,-0.53732 0.12437,0.0769 0.49793,-0.14957 0.83013,-0.50318 l 0.60399,-0.64293 -1.01519,-1.3312 c -1.07188,-1.40556 -1.79481,-1.71891 -3.50657,-1.51991 -0.76544,0.089 -0.95918,0.27904 -1.52135,1.49244 -0.61762,1.33307 -0.87161,3.19 -0.43633,3.19 0.22521,0 0.25705,0.16107 0.4839,2.4474 l 0.15094,1.52135 h 1.03385 c 0.94097,0 1.03384,-0.0627 1.03384,-0.69843 z m -2.72803,-1.35209 c -0.0665,-0.25466 -0.121,-0.0463 -0.121,0.46302 0,0.50933 0.0545,0.71769 0.121,0.46302 0.0666,-0.25466 0.0666,-0.67138 0,-0.92604 z m -0.44697,-3.38905 c 0,-1.08453 -0.30475,-1.16004 -0.91611,-0.22698 -0.4235,0.64633 -0.42172,0.70252 0.0328,1.03487 0.65434,0.47847 0.88331,0.26905 0.88331,-0.80789 z m 40.32569,7.02707 c 0.10046,-0.65484 0.28219,-1.2903 0.40384,-1.41213 0.12166,-0.12182 0.11543,0.34464 -0.0138,1.03659 -0.30333,1.62367 -0.62968,1.93792 -0.38999,0.37554 z m -18.0798,0.37483 c 0.0127,-0.30823 0.0754,-0.37092 0.15985,-0.15985 0.0764,0.19099 0.067,0.4192 -0.0209,0.50712 -0.0879,0.0879 -0.15045,-0.0684 -0.13897,-0.34727 z m 34.93454,-0.28704 c -0.0357,-0.98376 0.1883,-1.67529 0.54267,-1.67529 0.13853,0 0.16241,0.14479 0.053,0.32174 -0.10937,0.17696 -0.2813,0.74251 -0.38206,1.25678 l -0.18322,0.93503 z M 27.8757,100.0094 c 0,-0.14096 0.1786,-0.25628 0.39688,-0.25628 0.21828,0 0.39687,0.0468 0.39687,0.10398 0,0.0572 -0.17859,0.17252 -0.39687,0.25628 -0.21828,0.0838 -0.39688,0.037 -0.39688,-0.10398 z m 23.41996,-1.23069 c -0.12796,-0.31036 -0.24114,-0.36621 -0.31928,-0.15754 -0.0784,0.2094 -0.34713,0.0793 -0.76294,-0.36937 -0.65951,-0.71162 -0.84627,-1.4091 -0.37732,-1.4091 0.14552,0 0.26459,-0.17859 0.26459,-0.39687 0,-0.21829 -0.17157,-0.39688 -0.38126,-0.39688 -0.2097,0 -0.45333,-0.1166 -0.54141,-0.25911 -0.20463,-0.33111 0.32073,-1.32839 0.69979,-1.32839 0.18864,0 0.17428,0.13663 -0.0417,0.39688 -0.2047,0.24665 -0.22371,0.39687 -0.0502,0.39687 0.30247,0 0.67687,0.87176 0.73859,1.71979 0.0821,1.12732 0.11354,1.21681 0.37199,1.05708 0.39842,-0.24623 1.18923,0.63563 0.86277,0.96209 -0.17743,0.17742 -0.33105,0.10603 -0.46359,-0.21545 z m 20.67727,-0.5249 c -0.097,-0.097 -0.17277,-0.3649 -0.16834,-0.59531 0.007,-0.34404 0.0582,-0.33261 0.28883,0.0639 0.2849,0.48993 0.2023,0.85417 -0.12049,0.53137 z m 18.60903,-0.33716 c 0,-0.13693 0.1177,-0.32171 0.26155,-0.41062 0.14998,-0.0927 0.19434,0.0135 0.10398,0.24897 -0.17589,0.45837 -0.36553,0.54223 -0.36553,0.16165 z M 51.37401,96.66196 c 0.191,-0.0764 0.4192,-0.067 0.50712,0.0209 0.0879,0.0879 -0.0683,0.15045 -0.34726,0.13896 -0.30823,-0.0127 -0.37092,-0.0754 -0.15986,-0.15985 z M 35.5904,96.04895 c 0,-0.3638 0.06,-0.51263 0.13345,-0.33073 0.0734,0.1819 0.0734,0.47956 0,0.66146 -0.0734,0.1819 -0.13345,0.0331 -0.13345,-0.33073 z m 38.9023,-0.54151 c 0.24597,-0.14346 0.76796,-0.64586 1.15999,-1.11643 l 0.71278,-0.8556 -0.46377,0.79375 c -0.51276,0.87759 -1.14649,1.4595 -1.57604,1.44716 -0.15409,-0.004 -0.0789,-0.12542 0.16704,-0.26888 z m 54.03304,0.0511 c 0.0947,-0.15326 0.55557,-0.54484 1.02412,-0.87017 l 0.85189,-0.59151 -0.52621,0.6037 c -0.57327,0.65769 -1.64835,1.34105 -1.3498,0.85798 z m -19.29066,-0.3033 c -0.0899,-0.14552 -0.0374,-0.26458 0.11668,-0.26458 0.15411,0 0.2802,0.11906 0.2802,0.26458 0,0.14552 -0.0525,0.26458 -0.11668,0.26458 -0.0642,0 -0.19026,-0.11906 -0.2802,-0.26458 z M 75.69467,92.01325 c -0.0826,-0.21527 0.0668,-0.36921 0.38127,-0.3929 0.2844,-0.0214 0.47223,0.0956 0.41741,0.26008 -0.15048,0.45144 -0.64487,0.53365 -0.79868,0.13282 z m -6.12154,-3.59584 c -0.0916,-0.14815 -0.0376,-0.34904 0.12003,-0.44642 0.40679,-0.25142 0.66926,0.093 0.32967,0.43255 -0.19002,0.19002 -0.33801,0.19458 -0.4497,0.0139 z"
       style="fill:#000000;stroke-width:0.26458335" />
  </g>
</svg>
